<?xml version="1.0" encoding="utf-8"?>
<!-- Generator: Adobe Illustrator 27.2.0, SVG Export Plug-In . SVG Version: 6.00 Build 0)  -->
<svg version="1.1" id="Layer_1" xmlns="http://www.w3.org/2000/svg" xmlns:xlink="http://www.w3.org/1999/xlink" x="0px" y="0px"
	 viewBox="0 0 640 480" style="enable-background:new 0 0 640 480;" xml:space="preserve">
<style type="text/css">
	.st0{fill:url(#SVGID_1_);stroke:#0000FF;stroke-width:0.5077;stroke-miterlimit:10;}
	.st1{fill:none;}
	.st2{fill:url(#SVGID_00000175320844224642943780000004624604312324391315_);}
	.st3{fill:url(#SVGID_00000016051409406041264040000007647983151964774535_);}
	.st4{fill:url(#SVGID_00000090999624514488662810000004541904322757630854_);}
	.st5{fill:url(#SVGID_00000036950331908043981040000003367371598992908673_);}
	.st6{fill:url(#SVGID_00000175301205809729109260000018333448232752874400_);}
	.st7{fill:url(#SVGID_00000109025560632761828900000009069982234679600301_);}
	.st8{fill:url(#SVGID_00000080194360529211609600000011023317228732223618_);}
	.st9{fill:url(#SVGID_00000031179130238492502400000013007701348300044468_);}
	.st10{fill:url(#SVGID_00000024002953373089273070000001634475277577088911_);}
	.st11{fill:url(#SVGID_00000101066430561795724520000001812283679704635319_);}
	.st12{fill:url(#SVGID_00000113322433147564153540000017144521229456030378_);}
	.st13{fill:url(#SVGID_00000142888913663606528050000009935953516041652885_);}
	.st14{fill:url(#SVGID_00000052093694485196853230000018166739300579617205_);}
	.st15{fill:url(#SVGID_00000047760253231720433540000017095836764376179895_);}
	.st16{fill:url(#SVGID_00000049901524957972300210000006803104434962862251_);}
	.st17{fill:url(#SVGID_00000137094503264276405480000000827556162896757914_);}
	.st18{opacity:0.4;fill:url(#SVGID_00000053528494013288786020000005135858284440619958_);}
	.st19{fill:#302A49;stroke:#6173AA;stroke-width:0;stroke-linecap:round;stroke-linejoin:round;}
	.st20{fill:#FFFFFF;}
	.st21{fill:#003E73;}
	.st22{fill:none;stroke:#000000;stroke-width:0.5204;stroke-miterlimit:10;}
	.st23{fill:#A67059;}
	.st24{fill:#7F4A3E;}
	.st25{fill:#A67051;}
	.st26{fill:#E2CDAA;}
	.st27{fill:#F2BC79;}
	.st28{fill:#F2EFC4;}
	.st29{fill:none;stroke:#000000;stroke-width:0.1129;stroke-miterlimit:10;}
	.st30{fill:#B18267;}
	.st31{fill:#202020;}
</style>
<g>
	<linearGradient id="SVGID_1_" gradientUnits="userSpaceOnUse" x1="132.7413" y1="76" x2="132.7413" y2="76">
		<stop  offset="1.385225e-07" style="stop-color:#E6E6E6"/>
		<stop  offset="9.292752e-03" style="stop-color:#DFC2C3"/>
		<stop  offset="0.0207" style="stop-color:#D89EA0"/>
		<stop  offset="0.0336" style="stop-color:#D27E81"/>
		<stop  offset="0.0478" style="stop-color:#CD6267"/>
		<stop  offset="0.0638" style="stop-color:#C84C51"/>
		<stop  offset="0.0826" style="stop-color:#C53B41"/>
		<stop  offset="0.1058" style="stop-color:#C33035"/>
		<stop  offset="0.1383" style="stop-color:#C1292F"/>
		<stop  offset="0.2285" style="stop-color:#C1272D"/>
		<stop  offset="0.5302" style="stop-color:#C1292F"/>
		<stop  offset="0.6389" style="stop-color:#C23035"/>
		<stop  offset="0.7164" style="stop-color:#C23B41"/>
		<stop  offset="0.779" style="stop-color:#C34C51"/>
		<stop  offset="0.8327" style="stop-color:#C56266"/>
		<stop  offset="0.8802" style="stop-color:#C77E80"/>
		<stop  offset="0.9232" style="stop-color:#C99EA0"/>
		<stop  offset="0.9614" style="stop-color:#CBC2C3"/>
		<stop  offset="0.9704" style="stop-color:#CCCCCC"/>
	</linearGradient>
	<path class="st0" d="M132.74,76"/>
	<g>
		<path class="st1" d="M150.79,181.05c0,6.16,6.28,11.15,14.03,11.15c1.62,0,3.17-0.22,4.61-0.62c1.52,0.45,3.17,0.7,4.89,0.7
			c7.75,0,14.03-4.99,14.03-11.15s-4.1-15.46-11.85-15.46c-1.62,0-5.49,1.53-6.94,1.93c-1.52-0.45-3.86-1.93-5.58-1.93
			C156.24,165.67,150.79,174.89,150.79,181.05z"/>
		
			<linearGradient id="SVGID_00000127739707676672671870000003421591512363634841_" gradientUnits="userSpaceOnUse" x1="188.6611" y1="183.2528" x2="151.4017" y2="174.9603">
			<stop  offset="2.930284e-07" style="stop-color:#7F0003"/>
			<stop  offset="0.0266" style="stop-color:#950D11"/>
			<stop  offset="0.0594" style="stop-color:#A9191E"/>
			<stop  offset="0.0973" style="stop-color:#B72126"/>
			<stop  offset="0.1444" style="stop-color:#BF262B"/>
			<stop  offset="0.2285" style="stop-color:#C1272D"/>
			<stop  offset="0.5716" style="stop-color:#BF262D"/>
			<stop  offset="0.6952" style="stop-color:#B8232B"/>
			<stop  offset="0.7833" style="stop-color:#AD1E29"/>
			<stop  offset="0.8545" style="stop-color:#9C1625"/>
			<stop  offset="0.9148" style="stop-color:#860D20"/>
			<stop  offset="0.9679" style="stop-color:#6B011A"/>
			<stop  offset="0.9704" style="stop-color:#6A001A"/>
		</linearGradient>
		<path style="fill:url(#SVGID_00000127739707676672671870000003421591512363634841_);" d="M188.86,181.38
			c0,6.26-6.45,11.33-14.4,11.33c-1.11,0-2.19-0.1-3.23-0.29c-0.61-0.11-1.21-0.25-1.79-0.42c-0.53,0.14-1.07,0.27-1.62,0.36
			c-1,0.17-2.05,0.27-3.12,0.27c-7.96,0-14.4-5.07-14.4-11.33c0-6.26,5.6-15.63,13.55-15.63h0.07c1.76,0.04,4.12,1.51,5.66,1.96
			c1.45-0.4,5.33-1.91,7.04-1.95c0.03,0,0.06,0,0.09,0C184.65,165.67,188.86,175.12,188.86,181.38z"/>
		
			<linearGradient id="SVGID_00000075863976370898678220000007557882193367771024_" gradientUnits="userSpaceOnUse" x1="170.3214" y1="168.2706" x2="186.9307" y2="154.3337">
			<stop  offset="0.0715" style="stop-color:#005516"/>
			<stop  offset="0.0833" style="stop-color:#006919"/>
			<stop  offset="0.103" style="stop-color:#00841D"/>
			<stop  offset="0.1257" style="stop-color:#009A21"/>
			<stop  offset="0.1521" style="stop-color:#00AB24"/>
			<stop  offset="0.1848" style="stop-color:#00B626"/>
			<stop  offset="0.2307" style="stop-color:#00BD27"/>
			<stop  offset="0.3581" style="stop-color:#00BF27"/>
			<stop  offset="0.5365" style="stop-color:#00BD27"/>
			<stop  offset="0.6278" style="stop-color:#00B525"/>
			<stop  offset="0.6994" style="stop-color:#00A822"/>
			<stop  offset="0.7607" style="stop-color:#00951E"/>
			<stop  offset="0.8154" style="stop-color:#007C19"/>
			<stop  offset="0.8654" style="stop-color:#005E13"/>
			<stop  offset="0.9119" style="stop-color:#003A0C"/>
			<stop  offset="0.9545" style="stop-color:#001104"/>
			<stop  offset="0.9704" style="stop-color:#000000"/>
		</linearGradient>
		<path style="fill:url(#SVGID_00000075863976370898678220000007557882193367771024_);" d="M183.66,150.68
			c0.07-0.1,0.23-0.05,0.23,0.07c-0.01,2.24-0.28,13.6-4.12,15.93c-3.91,2.37-9.09,1.2-9.92,0.99c-0.07-0.02-0.1-0.08-0.09-0.15
			c0.19-0.84,1.48-5.91,5.38-8.28C178.85,157.01,182.7,151.98,183.66,150.68z"/>
		
			<linearGradient id="SVGID_00000104668096860236044450000003077584124276813457_" gradientUnits="userSpaceOnUse" x1="167.9497" y1="169.1773" x2="171.6381" y2="166.0824">
			<stop  offset="1.065558e-08" style="stop-color:#421B00"/>
			<stop  offset="0.0939" style="stop-color:#381B00"/>
			<stop  offset="0.3557" style="stop-color:#221900"/>
			<stop  offset="0.5235" style="stop-color:#1A1900"/>
			<stop  offset="1" style="stop-color:#6A001D"/>
		</linearGradient>
		
			<ellipse style="fill:url(#SVGID_00000104668096860236044450000003077584124276813457_);" cx="169.79" cy="167.63" rx="3.09" ry="0.65"/>
		<g>
			
				<linearGradient id="SVGID_00000173854009649841745880000017107912354965435068_" gradientUnits="userSpaceOnUse" x1="169.9625" y1="168.3187" x2="186.7433" y2="154.238">
				<stop  offset="0" style="stop-color:#005516"/>
				<stop  offset="0.0785" style="stop-color:#005D15"/>
				<stop  offset="0.3525" style="stop-color:#007314"/>
				<stop  offset="0.5279" style="stop-color:#007B13"/>
				<stop  offset="1" style="stop-color:#1A5727"/>
			</linearGradient>
			<path style="fill:url(#SVGID_00000173854009649841745880000017107912354965435068_);" d="M183.77,150.87
				c0.06-0.07,0.17-0.03,0.16,0.07c-0.07,0.99-0.36,4.28-1.09,7.63s-1.93,6.75-3.82,7.97c-2.07,1.34-4.43,1.68-6.26,1.69
				c-1.83,0.01-3.15-0.32-3.15-0.32c0.89-1.84,2.46-6.04,5.6-8.33c1.8-1.31,3.72-3.21,5.29-4.91
				C182.09,152.96,183.32,151.43,183.77,150.87z"/>
			
				<linearGradient id="SVGID_00000137102088915824642660000013281343287624863646_" gradientUnits="userSpaceOnUse" x1="170.476" y1="168.0522" x2="186.1171" y2="154.9277">
				<stop  offset="0" style="stop-color:#005516"/>
				<stop  offset="0.0785" style="stop-color:#005D15"/>
				<stop  offset="0.3525" style="stop-color:#007314"/>
				<stop  offset="0.5279" style="stop-color:#007B13"/>
				<stop  offset="1" style="stop-color:#1A5727"/>
			</linearGradient>
			<path style="fill:url(#SVGID_00000137102088915824642660000013281343287624863646_);" d="M183.55,151.91
				c-0.07,0.9-0.35,3.93-1.06,7.02c-0.71,3.09-1.84,6.24-3.61,7.38c-1.93,1.25-4.12,1.58-5.82,1.6c-1.71,0.02-2.93-0.27-2.93-0.27
				c0.81-1.64,2.22-5.32,4.96-7.48c0.1-0.08,0.2-0.16,0.3-0.23c1.68-1.22,3.47-2.98,4.94-4.56c0.15-0.16,0.3-0.32,0.44-0.48
				c1.27-1.39,2.24-2.58,2.62-3.04C183.46,151.79,183.56,151.83,183.55,151.91z"/>
			
				<linearGradient id="SVGID_00000177462592430892371150000009891124863763979918_" gradientUnits="userSpaceOnUse" x1="170.9894" y1="167.7856" x2="185.4909" y2="155.6174">
				<stop  offset="0" style="stop-color:#005516"/>
				<stop  offset="0.0785" style="stop-color:#005D15"/>
				<stop  offset="0.3525" style="stop-color:#007314"/>
				<stop  offset="0.5279" style="stop-color:#007B13"/>
				<stop  offset="1" style="stop-color:#1A5727"/>
			</linearGradient>
			<path style="fill:url(#SVGID_00000177462592430892371150000009891124863763979918_);" d="M183.17,152.89
				c-0.06,0.81-0.35,3.58-1.03,6.41c-0.68,2.83-1.76,5.73-3.4,6.79c-1.79,1.16-3.81,1.48-5.38,1.52c-1.58,0.04-2.7-0.22-2.7-0.22
				c0.76-1.51,2.1-4.89,4.65-6.89c0.09-0.07,0.19-0.14,0.28-0.21c1.56-1.12,3.23-2.74,4.6-4.2c0.14-0.15,0.28-0.3,0.41-0.44
				c1.19-1.29,2.1-2.38,2.44-2.81C183.08,152.78,183.18,152.81,183.17,152.89z"/>
			
				<linearGradient id="SVGID_00000040565948741135539670000012819781890631124415_" gradientUnits="userSpaceOnUse" x1="171.5029" y1="167.519" x2="184.8647" y2="156.3071">
				<stop  offset="0" style="stop-color:#005516"/>
				<stop  offset="0.0785" style="stop-color:#005D15"/>
				<stop  offset="0.3525" style="stop-color:#007314"/>
				<stop  offset="0.5279" style="stop-color:#007B13"/>
				<stop  offset="1" style="stop-color:#1A5727"/>
			</linearGradient>
			<path style="fill:url(#SVGID_00000040565948741135539670000012819781890631124415_);" d="M182.79,153.87
				c-0.05,0.72-0.34,3.23-0.99,5.81c-0.65,2.57-1.67,5.21-3.2,6.2c-1.65,1.07-3.5,1.38-4.94,1.43c-1.45,0.05-2.48-0.17-2.48-0.17
				c0.71-1.38,1.97-4.46,4.34-6.29c0.09-0.07,0.17-0.13,0.26-0.19c1.44-1.03,2.98-2.51,4.25-3.85c0.13-0.14,0.25-0.27,0.38-0.4
				c1.1-1.18,1.95-2.19,2.26-2.57C182.71,153.76,182.79,153.8,182.79,153.87z"/>
			
				<linearGradient id="SVGID_00000041285375766708286040000013814080329232168843_" gradientUnits="userSpaceOnUse" x1="172.0164" y1="167.2525" x2="184.2386" y2="156.9969">
				<stop  offset="0" style="stop-color:#005516"/>
				<stop  offset="0.0785" style="stop-color:#005D15"/>
				<stop  offset="0.3525" style="stop-color:#007314"/>
				<stop  offset="0.5279" style="stop-color:#007B13"/>
				<stop  offset="1" style="stop-color:#1A5727"/>
			</linearGradient>
			<path style="fill:url(#SVGID_00000041285375766708286040000013814080329232168843_);" d="M182.41,154.84
				c-0.05,0.63-0.33,2.88-0.96,5.2c-0.63,2.32-1.59,4.7-2.99,5.6c-1.51,0.97-3.2,1.28-4.5,1.34c-1.32,0.07-2.25-0.11-2.25-0.11
				c0.66-1.24,1.84-4.03,4.03-5.69c0.08-0.06,0.16-0.12,0.24-0.17c1.32-0.94,2.74-2.28,3.9-3.5c0.12-0.12,0.23-0.24,0.35-0.36
				c1.02-1.08,1.81-2,2.09-2.34C182.34,154.75,182.41,154.78,182.41,154.84z"/>
			
				<linearGradient id="SVGID_00000052808213067370549130000007734989269623025044_" gradientUnits="userSpaceOnUse" x1="172.5299" y1="166.986" x2="183.6125" y2="157.6866">
				<stop  offset="0" style="stop-color:#005516"/>
				<stop  offset="0.0785" style="stop-color:#005D15"/>
				<stop  offset="0.3525" style="stop-color:#007314"/>
				<stop  offset="0.5279" style="stop-color:#007B13"/>
				<stop  offset="1" style="stop-color:#1A5727"/>
			</linearGradient>
			<path style="fill:url(#SVGID_00000052808213067370549130000007734989269623025044_);" d="M182.02,155.82
				c-0.04,0.54-0.33,2.53-0.93,4.59s-1.51,4.19-2.78,5.01c-1.37,0.88-2.89,1.18-4.07,1.26c-1.19,0.08-2.03-0.06-2.03-0.06
				c0.62-1.11,1.72-3.6,3.71-5.1c0.07-0.05,0.14-0.11,0.22-0.16c1.2-0.84,2.49-2.05,3.56-3.14c0.11-0.11,0.21-0.22,0.32-0.33
				c0.94-0.98,1.66-1.8,1.91-2.1C181.97,155.74,182.03,155.77,182.02,155.82z"/>
			
				<linearGradient id="SVGID_00000166655235613024250360000005626220318167217034_" gradientUnits="userSpaceOnUse" x1="173.0434" y1="166.7196" x2="182.9864" y2="158.3764">
				<stop  offset="0" style="stop-color:#005516"/>
				<stop  offset="0.0785" style="stop-color:#005D15"/>
				<stop  offset="0.3525" style="stop-color:#007314"/>
				<stop  offset="0.5279" style="stop-color:#007B13"/>
				<stop  offset="1" style="stop-color:#1A5727"/>
			</linearGradient>
			<path style="fill:url(#SVGID_00000166655235613024250360000005626220318167217034_);" d="M181.64,156.79
				c-0.03,0.45-0.32,2.18-0.89,3.98s-1.42,3.68-2.58,4.42c-1.23,0.79-2.58,1.08-3.63,1.17c-1.06,0.09-1.81-0.01-1.81-0.01
				c0.57-0.97,1.59-3.17,3.4-4.5c0.06-0.05,0.13-0.09,0.19-0.14c1.08-0.75,2.25-1.82,3.21-2.79c0.1-0.1,0.19-0.2,0.29-0.29
				c0.86-0.87,1.52-1.61,1.74-1.87C181.59,156.73,181.65,156.75,181.64,156.79z"/>
			
				<linearGradient id="SVGID_00000054944943054083942050000004319225366149152672_" gradientUnits="userSpaceOnUse" x1="173.5571" y1="166.4532" x2="182.3604" y2="159.0663">
				<stop  offset="0" style="stop-color:#005516"/>
				<stop  offset="0.0785" style="stop-color:#005D15"/>
				<stop  offset="0.3525" style="stop-color:#007314"/>
				<stop  offset="0.5279" style="stop-color:#007B13"/>
				<stop  offset="1" style="stop-color:#1A5727"/>
			</linearGradient>
			<path style="fill:url(#SVGID_00000054944943054083942050000004319225366149152672_);" d="M181.26,157.77
				c-0.03,0.36-0.32,1.83-0.86,3.37c-0.54,1.54-1.34,3.16-2.37,3.83c-1.09,0.7-2.27,0.98-3.19,1.08c-0.93,0.11-1.58,0.04-1.58,0.04
				c0.52-0.84,1.47-2.74,3.09-3.9c0.06-0.04,0.11-0.08,0.17-0.12c0.96-0.66,2-1.59,2.86-2.43c0.09-0.09,0.17-0.17,0.26-0.25
				c0.78-0.77,1.37-1.41,1.56-1.63C181.22,157.72,181.26,157.74,181.26,157.77z"/>
			
				<linearGradient id="SVGID_00000030461122065326560010000008888741700972010140_" gradientUnits="userSpaceOnUse" x1="174.0708" y1="166.187" x2="181.7346" y2="159.7563">
				<stop  offset="0" style="stop-color:#005516"/>
				<stop  offset="0.0785" style="stop-color:#005D15"/>
				<stop  offset="0.3525" style="stop-color:#007314"/>
				<stop  offset="0.5279" style="stop-color:#007B13"/>
				<stop  offset="1" style="stop-color:#1A5727"/>
			</linearGradient>
			<path style="fill:url(#SVGID_00000030461122065326560010000008888741700972010140_);" d="M180.88,158.75
				c-0.02,0.27-0.31,1.48-0.83,2.76c-0.51,1.29-1.25,2.65-2.17,3.24c-0.95,0.61-1.97,0.88-2.75,1c-0.8,0.12-1.36,0.09-1.36,0.09
				c0.47-0.71,1.34-2.31,2.78-3.31c0.05-0.03,0.1-0.07,0.15-0.1c0.84-0.56,1.76-1.36,2.52-2.08c0.08-0.07,0.15-0.14,0.23-0.22
				c0.69-0.66,1.23-1.22,1.38-1.4C180.85,158.71,180.88,158.72,180.88,158.75z"/>
			
				<linearGradient id="SVGID_00000116220556272413221810000014373004633892360854_" gradientUnits="userSpaceOnUse" x1="174.5848" y1="165.9211" x2="181.109" y2="160.4466">
				<stop  offset="0" style="stop-color:#005516"/>
				<stop  offset="0.0785" style="stop-color:#005D15"/>
				<stop  offset="0.3525" style="stop-color:#007314"/>
				<stop  offset="0.5279" style="stop-color:#007B13"/>
				<stop  offset="1" style="stop-color:#1A5727"/>
			</linearGradient>
			<path style="fill:url(#SVGID_00000116220556272413221810000014373004633892360854_);" d="M180.49,159.72
				c-0.01,0.18-0.31,1.13-0.79,2.16s-1.17,2.14-1.96,2.64c-0.81,0.52-1.66,0.78-2.31,0.91c-0.67,0.14-1.14,0.15-1.14,0.15
				c0.43-0.57,1.22-1.88,2.46-2.71c0.04-0.03,0.08-0.06,0.13-0.08c0.72-0.47,1.51-1.13,2.17-1.72c0.07-0.06,0.13-0.12,0.19-0.18
				c0.61-0.56,1.08-1.03,1.21-1.16C180.47,159.7,180.5,159.7,180.49,159.72z"/>
			
				<linearGradient id="SVGID_00000145044271720098122850000002289645210612278702_" gradientUnits="userSpaceOnUse" x1="175.0539" y1="165.6017" x2="180.4386" y2="161.0833">
				<stop  offset="0" style="stop-color:#005516"/>
				<stop  offset="0.0785" style="stop-color:#005D15"/>
				<stop  offset="0.3525" style="stop-color:#007314"/>
				<stop  offset="0.5279" style="stop-color:#007B13"/>
				<stop  offset="1" style="stop-color:#1A5727"/>
			</linearGradient>
			<path style="fill:url(#SVGID_00000145044271720098122850000002289645210612278702_);" d="M180.11,160.7
				c-0.01,0.09-0.3,0.78-0.76,1.55c-0.46,0.77-1.08,1.63-1.75,2.05c-0.67,0.43-1.35,0.68-1.87,0.82c-0.54,0.15-0.91,0.2-0.91,0.2
				c0.38-0.44,1.09-1.45,2.15-2.12c0.03-0.02,0.07-0.04,0.1-0.06c0.6-0.37,1.27-0.9,1.82-1.37c0.06-0.05,0.11-0.09,0.16-0.14
				c0.53-0.46,0.94-0.83,1.03-0.93C180.1,160.69,180.11,160.69,180.11,160.7z"/>
			
				<linearGradient id="SVGID_00000142898453872532885180000007999984077014347417_" gradientUnits="userSpaceOnUse" x1="175.5174" y1="165.2756" x2="179.7632" y2="161.7129">
				<stop  offset="0" style="stop-color:#005516"/>
				<stop  offset="0.0785" style="stop-color:#005D15"/>
				<stop  offset="0.3525" style="stop-color:#007314"/>
				<stop  offset="0.5279" style="stop-color:#007B13"/>
				<stop  offset="1" style="stop-color:#1A5727"/>
			</linearGradient>
			<path style="fill:url(#SVGID_00000142898453872532885180000007999984077014347417_);" d="M179.73,161.67c0,0-0.29,0.43-0.73,0.94
				c-0.43,0.51-1,1.11-1.55,1.46c-1.09,0.69-2.12,0.99-2.12,0.99c0.33-0.31,0.96-1.03,1.84-1.52c0.55-0.31,1.19-0.78,1.69-1.17
				S179.73,161.67,179.73,161.67z"/>
		</g>
		
			<linearGradient id="SVGID_00000060713175454961584140000018248750108401210009_" gradientUnits="userSpaceOnUse" x1="156.5988" y1="162.625" x2="170.2069" y2="162.625">
			<stop  offset="0.2151" style="stop-color:#983C0B"/>
			<stop  offset="0.4684" style="stop-color:#963A0B"/>
			<stop  offset="0.5596" style="stop-color:#8F350A"/>
			<stop  offset="0.6247" style="stop-color:#842B09"/>
			<stop  offset="0.6772" style="stop-color:#731E07"/>
			<stop  offset="0.7217" style="stop-color:#5D0C05"/>
			<stop  offset="0.7453" style="stop-color:#4E0003"/>
		</linearGradient>
		<path style="fill:url(#SVGID_00000060713175454961584140000018248750108401210009_);" d="M161.42,161.01
			c0.84,0.34,4.89,1.7,6.16,6.41c0.18,0.66,1.04,0.42,1.33,0.44c0.47,0.02,1.78,0.49,1.11-1.37c-0.26-0.73-3.17-3.12-6.41-6.05
			c-0.85-0.77-4.19-2.67-5.3-3.05C157.61,157.14,153.44,157.81,161.42,161.01z"/>
		
			<linearGradient id="SVGID_00000089544597960976568300000002880263833955139251_" gradientUnits="userSpaceOnUse" x1="171.9104" y1="192.4055" x2="167.2622" y2="191.371">
			<stop  offset="2.930284e-07" style="stop-color:#7F0003"/>
			<stop  offset="0.0158" style="stop-color:#640002"/>
			<stop  offset="0.0381" style="stop-color:#450002"/>
			<stop  offset="0.0626" style="stop-color:#2C0001"/>
			<stop  offset="0.0897" style="stop-color:#180001"/>
			<stop  offset="0.1208" style="stop-color:#0A0000"/>
			<stop  offset="0.1594" style="stop-color:#020000"/>
			<stop  offset="0.2285" style="stop-color:#000000"/>
			<stop  offset="0.5583" style="stop-color:#020000"/>
			<stop  offset="0.6771" style="stop-color:#090002"/>
			<stop  offset="0.7617" style="stop-color:#140005"/>
			<stop  offset="0.8302" style="stop-color:#250009"/>
			<stop  offset="0.8888" style="stop-color:#3B000F"/>
			<stop  offset="0.9398" style="stop-color:#560015"/>
			<stop  offset="0.9704" style="stop-color:#6A001A"/>
		</linearGradient>
		<path style="opacity:0.4;fill:url(#SVGID_00000089544597960976568300000002880263833955139251_);" d="M172,191.95
			c0,0.18-0.15,0.34-0.42,0.48c-0.75-0.14-1.48-0.33-2.19-0.55c-0.64,0.19-1.31,0.35-1.98,0.47c-0.18-0.12-0.28-0.25-0.28-0.4
			c0-0.03,0.01-0.07,0.02-0.11c0.15-0.42,1.17-0.74,2.41-0.74C170.92,191.1,172,191.48,172,191.95z"/>
	</g>
</g>
<path class="st19" d="M126.03,243.2c-0.01,5.85,4.23,10.55,9.38,10.41l74.6-2.07v-59.47h-74.14c-5.39,0-9.77,4.96-9.78,11.08
	L126.03,243.2z"/>
<g>
	<polygon class="st20" points="134.98,198.87 208.71,197.92 208.72,198.45 134.99,199.39 	"/>
	<polygon class="st20" points="202.07,202.41 208.78,202.8 141.76,203.71 135.05,203.32 	"/>
	<polygon class="st20" points="195.43,206.9 208.84,207.16 148.52,208.03 135.11,207.77 	"/>
	<polygon class="st20" points="188.79,211.39 208.9,211.51 155.29,212.34 135.17,212.22 	"/>
	<polygon class="st20" points="182.15,215.87 208.96,215.87 162.05,216.66 135.24,216.67 	"/>
	<polygon class="st20" points="175.51,220.36 209.02,220.22 168.81,220.98 135.3,221.12 	"/>
	<polygon class="st20" points="168.87,224.85 209.09,224.58 175.58,225.29 135.36,225.57 	"/>
	<polygon class="st20" points="162.23,229.34 209.15,228.93 182.34,229.61 135.42,230.02 	"/>
	<polygon class="st20" points="155.59,233.83 209.21,233.29 189.11,233.93 135.49,234.47 	"/>
	<polygon class="st20" points="148.95,238.32 209.27,237.64 195.87,238.24 135.55,238.92 	"/>
	<polygon class="st20" points="142.31,242.81 209.33,242 202.64,242.56 135.61,243.37 	"/>
	<polygon class="st20" points="135.67,247.3 209.39,246.35 209.4,246.88 135.67,247.82 	"/>
</g>
<g>
	<g>
		<path class="st21" d="M256.76,195.2c0-0.57-0.09,0.3-0.29,2.58c-0.26,2.88-0.46,6.6-0.62,11.09c-0.18,5.09-0.29,10.91-0.29,17.42
			c0,10.76,0.28,18.41,0.84,22.97c0.05,0.5,0.07,0.81,0.07,0.94c0,0.29-0.18,0.45-0.55,0.51c-0.88,0.13-4.12,0.2-9.72,0.2
			c-1.32,0-2.18-0.33-2.27-0.82c-0.17-0.83-0.07-2.01-0.15-2.97c-0.02-0.2-0.12-0.42-0.29-0.62c-0.15,0.08-0.33,0.23-0.55,0.47
			c-2.64,2.76-5.94,4.14-9.9,4.14c-5.16,0-9.29-1.93-12.4-5.78c-2.96-3.67-4.44-8.31-4.44-13.91c0-5.68,1.46-10.35,4.36-14.02
			c3.08-3.9,7.24-5.86,12.47-5.86c3.69,0,6.57,1.25,8.62,3.75c0.34,0.42,0.59,0.62,0.73,0.62c0.22,0,0.33-0.34,0.33-1.02
			c0-2-0.05-5-0.15-8.98c-0.1-3.98-0.15-6.97-0.15-8.94c0-0.76,0.23-1.23,0.59-1.29c1.39-0.22,3.79-0.18,6.46-0.47
			c4.79-0.52,7.05-0.98,6.49-0.98C256.49,194.23,256.76,194.55,256.76,195.2z M242.94,231.1c0-2.06-0.67-3.86-2.02-5.41
			c-1.35-1.55-2.97-2.32-4.88-2.32c-2,0-3.6,0.78-4.79,2.32c-1.19,1.55-1.78,3.41-1.78,5.57c0,2.11,0.63,3.9,1.8,5.35
			c1.23,1.53,2.81,2.34,4.77,2.34c1.96,0,3.59-0.78,4.92-2.34C242.27,235.05,242.94,233.21,242.94,231.1z"/>
		<path class="st21" d="M299.93,215.13c0,1.93-0.09,4.82-0.26,8.67c-0.17,3.85-0.26,6.75-0.26,8.67c0,1.88,0.06,4.69,0.18,8.44
			c0.12,3.75,0.18,6.55,0.18,8.4c0,0.7-0.31,1.15-0.92,1.33c-0.92,0.27-2.9,0.39-5.91,0.39c-2.67,0-4.54-0.07-5.58-0.23
			c-0.46-0.07-0.8-0.42-0.88-0.94c-0.11-0.73-0.14-1.57-0.22-2.34c-0.12-1.19-0.29-1.8-0.51-1.8c0.34,0-0.89,0.89-3.7,2.66
			c-2.81,1.77-5.37,2.66-7.67,2.66c-6.48,0-10.34-3.13-11.52-9.34c-0.55-2.88-0.81-7.08-0.81-12.58c0-5.94,0.45-10.62,1.36-14.06
			c0.27-1.07,0.77-1.6,1.5-1.6c1.12,0,2.84,0.01,5.13,0.04c2.3,0.03,4.01,0.04,5.14,0.04c0.76,0,1.14,0.34,1.14,1.02
			c0,0.18-0.02,0.46-0.07,0.82c-0.51,3.54-0.77,7.14-0.77,10.78c0,4.53,0.14,7.64,0.4,9.3c0.45,2.85,2.04,4.3,4.81,4.3
			c1.08,0,2.24-0.51,3.5-1.52s1.91-2.07,1.96-3.16c0.05-0.96,0.07-7.5,0.07-19.61c0-0.86,0.08-1.37,0.18-1.52
			c0.15-0.23,0.59-0.39,1.32-0.39c1.2,0,3,0.01,5.41,0.04c2.41,0.03,4.21,0.04,5.41,0.04c0.73,0,1.16,0.2,1.28,0.59
			C299.91,214.4,299.93,214.71,299.93,215.13z"/>
		<path class="st21" d="M339.95,251.3c-2.1,0-4.85-0.06-8.22-0.16c-4.39-0.12-7.14-0.17-8.22-0.2c-4.39-0.06-6.58-0.09-10.97-0.16
			c-1.1,0.03-2.81,0.08-4.73-0.16c-0.67-0.08-1.06-0.53-1.06-1.21c0-2.84,0.04-7.09,0.13-12.75c0.09-5.66,0.13-9.92,0.13-12.75
			c0-3.02-0.09-7.54-0.26-13.57c-0.17-6.03-0.26-10.55-0.26-13.57c0-0.57,0.37-0.86,1.1-0.86c0.73,0,1.83,0.04,3.28,0.12
			c1.45,0.08,2.54,0.12,3.25,0.12c0.81,0,2-0.05,3.59-0.14c1.59-0.09,2.79-0.14,3.59-0.14c0.37,0,0.54,0.25,0.51,0.74
			c-0.01,0.2-0.02,0.3-0.04,0.51c-0.29,4.9-0.62,12.25-0.99,22.07c-0.01,4.12-0.02,6.19-0.04,10.31c0,3.33-0.03,5.81,0.04,7.3
			c0.01,0.3,0.05,0.62,0.07,0.94c0.02,0.31,0.21,0.51,0.55,0.59c0.02,0,0.34,0,0.95,0c2.2,0,5.5-0.12,9.89-0.37
			c4.39-0.25,7.68-0.37,9.88-0.37c0.66,0,0.99,0.3,0.99,0.9c0,4.45-0.31,8.29-0.92,11.52c-0.12,0.68-0.38,1.08-0.77,1.21
			C341.33,251.27,340.83,251.3,339.95,251.3z"/>
		<path class="st21" d="M383.93,231.1c0,2.01,0.11,4.99,0.33,8.95c0.22,3.96,0.33,6.93,0.33,8.91c0,1.04-0.43,1.61-1.28,1.68
			c-3.01,0.25-6.5,0.35-10.42,0.35c-0.46,0-0.78-0.75-0.94-2.25c-0.16-1.5-0.35-2.26-0.57-2.29c-0.2,0.1-0.45,0.33-0.77,0.66
			c-2.74,2.94-5.67,4.41-8.8,4.41c-4.77,0-8.71-2.02-11.85-6.02c-2.94-3.75-4.44-8.23-4.44-13.44c0-6.02,1.53-10.87,4.59-14.53
			c3.17-3.8,7.53-5.7,13.06-5.7c3.84,0,6.87,1.43,9.1,4.3c0.1,0.13,0.18,0.2,0.26,0.2c0.22,0,0.47-0.63,0.75-1.89
			c0.28-1.26,0.62-1.89,1.01-1.89c0.9,0,2.63,0.27,5.17,0.82c2.42,0.52,4.16,0.96,5.21,1.33c0.37,0.16,0.55,0.36,0.55,0.62
			c0,0.1-0.04,0.38-0.11,0.82C384.32,220.85,383.93,225.84,383.93,231.1z M372.12,231.34c0-2.21-0.65-4.04-1.96-5.49
			c-1.31-1.45-3.01-2.17-5.12-2.17c-2.1,0-3.8,0.72-5.1,2.15c-1.3,1.43-1.94,3.27-1.94,5.51c0,2.11,0.68,3.92,2.05,5.43
			s3.03,2.27,4.99,2.27c2.08,0,3.78-0.72,5.1-2.17S372.12,233.58,372.12,231.34z"/>
		<path class="st21" d="M427.69,249.5c0,0.7-0.34,1.11-1.03,1.21c-0.69,0.1-2.47,0.16-5.36,0.16c-3.08,0-4.99-0.08-5.72-0.23
			s-1.1-0.69-1.1-1.6c0-1.22,0.04-3.07,0.11-5.55c0.07-2.47,0.11-4.34,0.11-5.59c0-0.96-0.02-2.4-0.07-4.32s-0.07-3.35-0.07-4.32
			c0-3.57-1.46-5.35-4.36-5.35c-0.95,0-2.09,0.44-3.34,1.33c-1.37,0.97-2.05,1.97-2.05,2.93c0,8.44,0,12.66,0,21.09
			c0,0.86-0.38,1.35-1.14,1.45c-0.85,0.11-2.6,0.16-5.25,0.16c-2.86,0-4.72-0.08-5.58-0.23c-0.75-0.13-1.14-0.56-1.14-1.29
			c0-2.03,0.01-5.09,0.04-9.18c0.02-4.09,0.04-7.16,0.04-9.22c0-6.48-0.48-11.58-1.43-15.27c-0.05-0.23-0.07-0.43-0.07-0.59
			c0-0.42,0.18-0.7,0.55-0.86c1.54-0.18,3.67-0.41,6.16-0.86c3.8-0.68,6.08-1.21,6.57-1.21c0.27,0,0.48,0.88,0.62,2.64
			s0.35,2.64,0.62,2.64c-0.27,0,1.05-0.9,3.94-2.71c2.9-1.81,5.43-2.71,7.61-2.71c3.11,0,5.72,0.78,7.78,2.34
			c2.32,1.77,3.48,4.3,3.48,7.5c0,4.98,0,7.48,0,12.46c0,1.69,0.01,4.23,0.04,7.6C427.67,245.27,427.69,247.81,427.69,249.5z"/>
		<path class="st21" d="M472.69,195.2c0-0.57-0.09,0.3-0.29,2.58c-0.26,2.88-0.46,6.6-0.62,11.09c-0.18,5.09-0.29,10.91-0.29,17.42
			c0,10.76,0.28,18.41,0.84,22.97c0.05,0.5,0.07,0.81,0.07,0.94c0,0.29-0.18,0.45-0.55,0.51c-0.88,0.13-4.12,0.2-9.72,0.2
			c-1.32,0-2.18-0.33-2.27-0.82c-0.17-0.83-0.07-2.01-0.15-2.97c-0.02-0.2-0.12-0.42-0.29-0.62c-0.15,0.08-0.33,0.23-0.55,0.47
			c-2.64,2.76-5.94,4.14-9.9,4.14c-5.16,0-9.29-1.93-12.4-5.78c-2.96-3.67-4.44-8.31-4.44-13.91c0-5.68,1.46-10.35,4.36-14.02
			c3.08-3.9,7.24-5.86,12.47-5.86c3.69,0,6.57,1.25,8.62,3.75c0.34,0.42,0.59,0.62,0.73,0.62c0.22,0,0.33-0.34,0.33-1.02
			c0-2-0.05-5-0.15-8.98c-0.1-3.98-0.15-6.97-0.15-8.94c0-0.76,0.23-1.23,0.59-1.29c1.39-0.22,3.79-0.18,6.46-0.47
			c4.79-0.52,7.05-0.98,6.49-0.98C472.42,194.23,472.69,194.55,472.69,195.2z M458.86,231.1c0-2.06-0.67-3.86-2.02-5.41
			c-1.34-1.55-2.97-2.32-4.88-2.32c-2,0-3.6,0.78-4.79,2.32c-1.19,1.55-1.78,3.41-1.78,5.57c0,2.11,0.63,3.9,1.8,5.35
			c1.23,1.53,2.81,2.34,4.77,2.34s3.59-0.78,4.92-2.34S458.86,233.21,458.86,231.1z"/>
	</g>
</g>
<g>
	<path class="st22" d="M441.57,169.97C441.57,169.97,441.57,169.97,441.57,169.97"/>
	<path class="st23" d="M456.14,189.02c-0.27-4.8-2.78-8.87-5.81-12.36l-0.49-0.01c0.65-0.74,1.24-1.51,1.74-2.33
		c1.38-2.25,2.16-4.78,2.16-7.45c0-1.96-0.41-3.83-1.19-5.59c-2.84-6.52-10.55-11.23-19.67-11.42c-0.18-0.01-0.36-0.01-0.55-0.01
		s-0.37,0-0.55,0.01c-9.12,0.19-16.83,4.9-19.67,11.42c-0.77,1.75-1.19,3.63-1.19,5.59c0,2.24,0.54,4.37,1.53,6.32
		c0.37,0.72,0.92,1.89,1.43,2.67l-1.1-0.02c-4,4.24-6.29,9.82-5.96,15.81c0.68,12.36,12.28,21.8,25.9,21.07
		c0.21-0.01,0.42-0.02,0.63-0.04c0.01,0,0.01,0,0.01,0c0.54-0.04,1.07-0.1,1.6-0.17C447.47,210.81,456.79,200.7,456.14,189.02z"/>
	<path class="st24" d="M452.04,213.54c3.08-2.74,5.59-9.6,6.17-17.75c0.76-10.81-2.17-19.81-6.54-20.11
		c-1.34-0.09-2.66,0.64-3.87,2.02c-0.09,0.09-0.17,0.19-0.26,0.3L452.04,213.54z"/>
	<path class="st24" d="M415.02,176.51c-0.09-0.09-0.19-0.18-0.29-0.27c-1.35-1.25-2.74-1.84-4.06-1.61
		c-4.32,0.74-6.27,10-4.36,20.67c1.44,8.05,4.67,14.62,8.03,17.03L415.02,176.51z"/>
	<path class="st25" d="M451.64,161.98c1.11-0.84,6.3-8.25,7.36-10.31c0.23-0.46-6.3,1.03-7.88,1.03c-3.72,0-20.31-1.03-20.49-1.03
		c-0.18,0-8.31,0.77-18.98,0.77c-7.18,0-6.24-2.32-6.76-1.8c-0.88,0.87,2.65,6.28,7.93,11.16"/>
	<g>
		<g>
			<path class="st26" d="M446.65,159.66c-2.04-2.53-5.58-4.24-9.45-5.05l-4.74,8.14l-1.5-0.04c-0.11-0.06-0.2-0.16-0.26-0.26
				l-5.07-5.89c-0.34-0.33-0.65-0.89-0.94-1.58c-2.81,0.72-5.39,1.9-6.94,3.64c-2.53,2.85-3.15,7.22-1.84,10.17
				c2.35,5.29,7.75,2.2,16.02,2.2c9.02,0,14.51,2.87,16.55-2.54C449.27,166.36,448.68,162.18,446.65,159.66z"/>
		</g>
	</g>
	<path class="st27" d="M434.04,166.43c0.01,2.03-1.06,3.67-2.36,3.67s-2.36-1.64-2.36-3.67s1.06-3.65,2.36-3.67
		C432.95,162.73,434.02,164.39,434.04,166.43z"/>
	<ellipse class="st28" cx="423.67" cy="163.01" rx="4.85" ry="4.12"/>
	<ellipse class="st28" cx="439.55" cy="162.91" rx="4.73" ry="4.02"/>
	<g>
		<g>
			<path d="M424.84,161.77c-1.01,0-1.85,0.56-2.05,1.3c0.14-0.04,0.3-0.06,0.48-0.06c0.58,0,1.05,0.23,1.05,0.52
				c0,0.28-0.47,0.52-1.05,0.52c-0.14,0-0.27-0.01-0.38-0.04c0.3,0.62,1.06,1.07,1.96,1.07c1.16,0,2.1-0.74,2.1-1.65
				C426.94,162.51,426,161.77,424.84,161.77z"/>
		</g>
		<g>
			<path class="st29" d="M424.84,161.77c-1.01,0-1.85,0.56-2.05,1.3c0.14-0.04,0.3-0.06,0.48-0.06c0.58,0,1.05,0.23,1.05,0.52
				c0,0.28-0.47,0.52-1.05,0.52c-0.14,0-0.27-0.01-0.38-0.04c0.3,0.62,1.06,1.07,1.96,1.07c1.16,0,2.1-0.74,2.1-1.65
				C426.94,162.51,426,161.77,424.84,161.77z"/>
		</g>
	</g>
	<g>
		<g>
			<path d="M439.03,161.77c-1.01,0-1.85,0.56-2.05,1.3c0.14-0.04,0.3-0.06,0.48-0.06c0.58,0,1.05,0.23,1.05,0.52
				c0,0.28-0.47,0.52-1.05,0.52c-0.14,0-0.27-0.01-0.38-0.04c0.3,0.62,1.06,1.07,1.96,1.07c1.16,0,2.1-0.74,2.1-1.65
				C441.13,162.51,440.19,161.77,439.03,161.77z"/>
		</g>
		<g>
			<path class="st29" d="M439.03,161.77c-1.01,0-1.85,0.56-2.05,1.3c0.14-0.04,0.3-0.06,0.48-0.06c0.58,0,1.05,0.23,1.05,0.52
				c0,0.28-0.47,0.52-1.05,0.52c-0.14,0-0.27-0.01-0.38-0.04c0.3,0.62,1.06,1.07,1.96,1.07c1.16,0,2.1-0.74,2.1-1.65
				C441.13,162.51,440.19,161.77,439.03,161.77z"/>
		</g>
	</g>
	<ellipse class="st26" cx="431.94" cy="191.61" rx="16.02" ry="14.17"/>
	<ellipse class="st27" cx="421.17" cy="212.23" rx="1.58" ry="4.38"/>
	<ellipse class="st27" cx="424.32" cy="212.49" rx="1.58" ry="5.67"/>
	<ellipse class="st27" cx="427.47" cy="212.23" rx="1.58" ry="4.38"/>
	<ellipse class="st27" cx="437.45" cy="212.23" rx="1.58" ry="4.38"/>
	<ellipse class="st27" cx="440.61" cy="211.97" rx="1.58" ry="5.67"/>
	<ellipse class="st27" cx="443.76" cy="211.71" rx="1.58" ry="4.38"/>
	<g>
		<g>
			<path class="st25" d="M450.19,156.68c1.75-0.39,3.43-1.1,4.93-2.1c0.34-0.23,0.52-0.7,0.28-1.07c-0.22-0.34-0.7-0.52-1.07-0.28
				c-1.44,0.96-2.87,1.57-4.55,1.94c-0.4,0.09-0.67,0.57-0.55,0.96C449.37,156.55,449.77,156.77,450.19,156.68L450.19,156.68z"/>
		</g>
	</g>
	<g>
		<g>
			<g>
				<g>
					<g>
						<path class="st30" d="M455.71,153.68c-0.04,0-0.15,0.01-0.12,0.03l0.17,0L455.71,153.68z"/>
						<path class="st30" d="M455.39,153.8c0.08,0.01,0.23,0.03,0.39,0.02c-0.17-0.02-0.1-0.03-0.29-0.04
							c-0.02-0.01,0.05-0.03,0.12-0.03c-0.04,0,0.04-0.03-0.07-0.03c-0.13,0.03-0.14,0.04-0.03,0.07
							C455.47,153.8,455.42,153.8,455.39,153.8z"/>
						<path class="st30" d="M454.65,154.52l0.02,0.01C454.66,154.53,454.65,154.52,454.65,154.52z"/>
						<path class="st30" d="M454.05,154.74c0-0.01,0-0.02-0.01-0.04C454.05,154.72,454.05,154.73,454.05,154.74z"/>
						<path class="st30" d="M453.89,154.61C453.89,154.61,453.9,154.62,453.89,154.61C453.89,154.6,453.88,154.59,453.89,154.61z"/>
						<path class="st30" d="M454.65,154.52l-0.04-0.03C454.64,154.54,454.64,154.52,454.65,154.52z"/>
						<path class="st30" d="M455.79,154.03c-0.01-0.01-0.02-0.01-0.04-0.02l0.02,0.02L455.79,154.03z"/>
						<path class="st30" d="M454.76,154.25L454.76,154.25c-0.01-0.02-0.03-0.04-0.04-0.06L454.76,154.25z"/>
						<path class="st30" d="M454.85,154.11c-0.01,0,0.11,0.09,0.16,0.12c-0.05-0.04-0.07-0.06-0.08-0.07
							C454.91,154.15,454.89,154.13,454.85,154.11z"/>
						<path class="st30" d="M455.2,153.97l-0.02-0.01L455.2,153.97z"/>
						<path class="st30" d="M454.64,154.32c-0.01-0.02-0.03-0.03-0.03-0.04L454.64,154.32z"/>
						<path class="st30" d="M448.45,156.54c0-0.01,0-0.02,0-0.03C448.45,156.53,448.45,156.54,448.45,156.54z"/>
						<polygon class="st30" points="448.24,155.79 448.25,155.78 448.26,155.7 						"/>
						<path class="st30" d="M453.63,154.5L453.63,154.5C453.63,154.49,453.63,154.49,453.63,154.5z"/>
						<path class="st30" d="M451.82,155.1c0.05,0.12,0,0.17,0.05,0.31C451.86,155.35,451.86,155.17,451.82,155.1z"/>
						<path class="st30" d="M455.77,154.03c0,0.01,0,0.01,0,0.01C455.77,154.04,455.77,154.04,455.77,154.03z"/>
						<polygon class="st30" points="451.88,155.4 451.88,155.41 451.88,155.42 						"/>
						<path class="st30" d="M453.2,154.74c0.01,0.02,0.02,0.04,0.02,0.06C453.22,154.78,453.22,154.76,453.2,154.74z"/>
						<path class="st30" d="M453.61,154.82l-0.01-0.02C453.6,154.82,453.61,154.82,453.61,154.82z"/>
						<path class="st30" d="M453.08,154.99c-0.01-0.01-0.02-0.03-0.02-0.01L453.08,154.99
							C453.07,154.97,453.07,154.97,453.08,154.99z"/>
						<polygon class="st30" points="452.9,155.04 452.91,155.07 452.91,155.06 						"/>
						<path class="st30" d="M449.1,156.51c0-0.04,0-0.09,0-0.13C449.1,156.48,449.06,156.52,449.1,156.51z"/>
						<path class="st30" d="M455.71,154.01c0.04,0.01,0.05,0.01,0.06,0.02c0,0,0-0.01-0.01-0.01
							C455.74,154.02,455.72,154.01,455.71,154.01z"/>
						<path class="st30" d="M453.4,156.1l-0.04-0.01C453.38,156.1,453.39,156.1,453.4,156.1z"/>
						<path class="st30" d="M450.62,156.46l-0.01,0.02C450.62,156.48,450.62,156.48,450.62,156.46z"/>
						<path class="st30" d="M453.27,156.13c-0.02-0.05-0.03-0.07-0.05-0.09c0,0.01,0,0.02,0.01,0.04L453.27,156.13z"/>
						<path class="st30" d="M449.1,156.38L449.1,156.38L449.1,156.38z"/>
						<path class="st30" d="M448.86,156.71c0.03,0.01,0.03-0.19,0.04-0.3c0.04-0.05,0.01,0.14,0.02,0.24
							c0.03-0.05,0.05-0.23,0.07-0.22c0,0.03,0,0.04,0,0.08c0.03-0.15,0.08,0,0.11-0.2l0,0.05c0-0.1,0-0.19,0.01-0.26
							c0.01,0,0.03-0.12,0.03,0.01c-0.01,0-0.01,0.05-0.02,0.09l0.02-0.05c0.01,0.18-0.02,0.06-0.03,0.2
							c0.03-0.06,0.07-0.21,0.09-0.15c0,0.18-0.05,0.06-0.03,0.22l-0.03-0.07c0.02,0.28-0.02-0.02-0.01,0.28
							c0.04,0.05,0.05-0.09,0.1-0.03c0.01-0.1,0.01-0.14,0.01-0.24c0.07-0.17,0.04,0.45,0.09,0.21c0.02-0.12,0.02-0.34,0.06-0.22
							l-0.02,0.2c0.04,0.02,0.03-0.29,0.07-0.15c-0.01,0.08-0.04,0.07-0.03,0.09c0.03,0.16,0.02-0.11,0.05-0.11l0,0.18
							c0.05-0.03,0.1-0.15,0.15-0.19c0,0.05-0.01,0.11,0,0.16c0.07-0.09,0.14,0.02,0.21,0.12l0.02-0.15c0.01,0,0.01,0.07,0.01,0.1
							c0.03,0.06,0-0.1,0.01-0.16c0.01-0.01,0.02,0.09,0.01,0.13c0.04-0.13,0.12-0.28,0.17-0.12l-0.01,0.05
							c0.04,0.06,0.03-0.31,0.07-0.17l-0.01,0.03c0.08,0.06,0.16-0.08,0.23,0.15c0-0.22,0.08,0.09,0.07-0.21
							c0.05,0.15,0.04,0.21,0.11,0.3c0.02,0.01,0.01-0.19,0.03-0.23l0.01,0.16l0.02-0.17l0.03,0.19l0.02-0.04
							c-0.01-0.01-0.02-0.07-0.02-0.12c0.02-0.07,0.08,0.11,0.09,0.19l0.06-0.14c0,0.06-0.01,0.09-0.01,0.13
							c0.02-0.17,0.02,0.17,0.04,0.02c-0.01-0.04-0.01-0.1-0.01-0.13c0.03,0.1,0.07,0.09,0.09,0.05l0,0.11
							c0.06,0.02,0.11-0.06,0.17-0.07c-0.03-0.05-0.04-0.24-0.03-0.26l0.02,0.17c0-0.11-0.02-0.06-0.02-0.19
							c0.02,0.02,0.04,0.19,0.03,0.25l0.02-0.06c0,0.05,0,0.08,0.01,0.14c0-0.11,0.07,0.16,0.06-0.02l0.01,0.05
							c0.06-0.01,0.08-0.07,0.13-0.08c-0.02-0.15,0.01-0.12,0.01-0.23c0.04,0.04,0.1,0.15,0.14,0.13c0.02-0.08-0.01-0.12-0.01-0.21
							c0.02,0.13,0.06,0.11,0.05,0.21c0.05-0.03,0.06-0.04,0.11-0.15c-0.02-0.05-0.03-0.08-0.03-0.12c0.01-0.02,0.03,0.05,0.04,0.12
							l0,0.01c0.04-0.21,0.23,0.36,0.24,0.07l0,0.01l0.04-0.15c0.03,0.02,0,0.1,0.03,0.18c0.03-0.23,0.11,0.01,0.13-0.14
							c0.11,0.38,0.14-0.06,0.24,0.18l-0.02-0.09c0-0.09,0.03,0.05,0.04,0.07c-0.02-0.07-0.03-0.08-0.03-0.13
							c0.1-0.13,0.28,0.08,0.42,0.13c0.05,0.01-0.08-0.47,0.02-0.27l0.02,0.17c0.04-0.22,0.19-0.04,0.23-0.23
							c0,0.04,0.02,0.09,0.01,0.09c0.05,0.12,0.07-0.01,0.05-0.11c0.02,0.01,0.03,0.09,0.05,0.14c0.04,0.07,0.01-0.17,0.05-0.05
							c0.01,0.02,0.01,0.04,0,0.05c0-0.06,0.06,0,0.01-0.14c0.05,0.06,0.05-0.08,0.1,0c-0.03-0.16,0.08,0.06,0.02-0.16
							c0.06,0.23,0.11,0.17,0.1,0.05c0.01,0.07,0.04,0.07,0.06,0.16c0.02-0.01,0.03-0.06-0.01-0.17c0.12,0.26,0.02-0.24,0.15,0.1
							c0.03-0.14,0.07-0.25,0.12-0.32c0.07,0.22-0.06,0.04,0.02,0.28c0.03-0.11,0-0.31,0.08-0.28c0.03,0.03,0.02,0.1,0.03,0.14
							c0.03-0.11,0.12-0.02,0.13-0.16c0.01,0.02,0.01,0.05,0.01,0.06c0.01-0.01,0.04,0.02,0-0.08l0,0.03
							c-0.07-0.14-0.07-0.32-0.09-0.4c0.08,0.29,0.08,0.05,0.18,0.43c0-0.02-0.01-0.07-0.03-0.14c0.02,0.02,0.03,0.05,0.05,0.13
							c0.02-0.07-0.03-0.17,0-0.18c0.01,0.05,0.02,0.07,0.03,0.13c-0.02-0.1-0.03-0.2,0.01-0.17c0.01,0.03,0.03,0.07,0.02,0.07
							c0.04-0.03-0.01-0.28,0.08-0.21c0.06,0.22,0.04,0.06,0.12,0.24l0.01-0.07l-0.05-0.08c0.03-0.01,0-0.15,0.04-0.1l0.01,0.08
							l0.03-0.05l-0.06-0.06c-0.01-0.1-0.1-0.23-0.04-0.19c0,0.02,0.02-0.01,0.08,0.09l0,0c-0.01-0.06-0.03-0.13,0.01-0.09
							c0.03,0.06,0.09,0.2,0.1,0.23c-0.05-0.15,0.04-0.07-0.02-0.23c0.01,0.04,0.06,0.13,0.07,0.15l-0.05-0.12
							c0.03,0.03,0.04,0.05,0.07,0.12c0.05,0-0.12-0.22-0.03-0.14c0,0.01,0.01,0.03,0.01,0.05c0.07,0.03,0.04-0.11,0.11-0.08
							c0.1,0.17-0.01,0.06,0.08,0.2c0.04-0.06,0-0.27,0.07-0.26l-0.02-0.01c-0.14-0.24,0.11,0.1,0.07-0.03
							c0,0.02,0.07,0.14,0.06,0.11c0.06,0.01,0.04-0.11,0.04-0.21l0.03,0.06c0.06,0.04,0.07-0.01,0.12,0
							c-0.04-0.06-0.02-0.06-0.09-0.14c0.32,0.26-0.02-0.26,0.25-0.06c-0.01,0.01,0.03,0.06,0.03,0.06l0-0.09
							c-0.09-0.08-0.06-0.05-0.13-0.1c-0.04-0.06-0.07-0.11-0.06-0.12c0.04,0.07,0.14,0.14,0.2,0.17l-0.08-0.08
							c0.18,0.12-0.17-0.17-0.04-0.1l0.05,0.04c-0.01-0.03-0.07-0.1-0.04-0.1c0.11,0.08,0.04,0.05,0.12,0.13
							c0.01-0.03-0.17-0.21-0.05-0.13c0.02,0.03,0.01,0.04,0.04,0.08c0.14,0.09,0.11,0.06,0.15,0.06l0,0l0.09,0.01l-0.04-0.02
							c-0.27-0.24-0.01-0.1-0.19-0.26c0.17,0.15,0.11,0.08,0.24,0.16c0.04,0.01,0.1,0.02,0.13,0.05c-0.1-0.09,0.11,0.01-0.04-0.11
							c0.05,0.02,0.02-0.02,0.13,0.04c-0.02-0.05-0.08-0.03-0.14-0.07c-0.13-0.11,0.24-0.02,0.05-0.18
							c-0.07-0.09-0.24-0.15-0.31-0.21c0.08,0,0.18,0.06,0.18,0.06c0.08-0.01,0.07-0.03,0.02-0.07c0.04,0.01,0.08,0.02,0.14,0.02
							c-0.01-0.03-0.18-0.04-0.1-0.06c0.06,0.01,0.14,0.03,0.2,0.05c-0.04-0.04-0.13-0.07-0.18-0.1c0.09,0,0.13,0.03,0.19,0.05
							c-0.04-0.04-0.07-0.09-0.21-0.11l-0.05,0.02c-0.01-0.01,0.12,0,0.15,0.01c0.11,0.03-0.05,0.04-0.1,0.03l-0.03-0.02
							c-0.3-0.01,0.04,0.07,0.02,0.11l-0.21-0.05l0.17,0.06c-0.06,0-0.18-0.02-0.2-0.04c-0.11,0,0.07,0.03-0.05,0.02
							c-0.02,0-0.03-0.01-0.04-0.01l0.06,0.03c-0.04-0.01-0.15-0.04-0.12-0.04c-0.13-0.01,0.15,0.09-0.02,0.05l-0.01-0.01
							c0.05,0.06,0.15,0.05,0.31,0.16l-0.37-0.13l0.14,0.07c-0.01,0-0.02,0.01-0.08-0.02c0.09,0.06,0.06,0.03,0.15,0.08
							c-0.14-0.04,0.03,0.09-0.2-0.02c0.1,0.07,0.09,0.03,0.15,0.09c-0.24-0.13,0.03,0.05-0.09,0c-0.12-0.08-0.05-0.06-0.16-0.11
							c0.19,0.14-0.06,0-0.03,0.04c0.15,0.11,0.05,0.07,0.08,0.13c-0.05-0.04-0.12-0.03-0.18-0.05l-0.02-0.02
							c0.14,0.13,0.09,0.13,0.11,0.17c-0.08-0.08-0.11-0.12-0.14-0.16l-0.01,0.01c0.04,0.05,0.06,0.07,0.07,0.1l-0.1-0.11
							c-0.01,0.02,0.08,0.16-0.01,0.1c0.08,0.1,0.27,0.26,0.3,0.35c-0.05-0.05-0.13-0.15-0.14-0.17c0,0.01,0.03,0.05,0.01,0.03
							l-0.07-0.1c-0.05-0.03,0.06,0.08,0.04,0.08c-0.07-0.08-0.05-0.05-0.11-0.11c0-0.01,0.04,0.03,0.01-0.01
							c-0.02-0.01-0.07-0.04-0.13-0.1c0.04,0.04,0.09,0.11,0.09,0.12c-0.01,0.02-0.08-0.09-0.13-0.12c0.04,0.06-0.02,0.01,0.08,0.13
							c-0.01,0-0.05-0.05-0.08-0.08c0.03,0.06-0.04,0.05,0.07,0.17l0.01,0.01l0,0.01l0,0l0,0c0.05,0.15-0.13-0.02-0.13,0.06
							l-0.03-0.04c0.01,0.06-0.03,0.06,0.01,0.16c-0.01,0-0.06-0.07-0.09-0.13c0,0.04,0.03,0.1-0.04,0.04
							c-0.03-0.09-0.04-0.07-0.01-0.07c-0.04-0.03-0.09-0.1-0.05,0.04c-0.05-0.12-0.1-0.14-0.09-0.1l0.06,0.07
							c0,0.02-0.02,0.02-0.04,0.01l-0.07-0.16c-0.13-0.17,0.07,0.36-0.11,0.06c0.04,0.12,0.06,0.07,0.11,0.2
							c-0.03-0.01-0.16-0.23-0.16-0.22c-0.07-0.08,0.07,0.24,0.02,0.2c0.03,0.05,0.1,0.2,0.09,0.27c-0.03-0.01-0.13-0.23-0.13-0.28
							c0-0.01,0.01,0.01,0.02,0.03c0-0.02,0-0.05-0.04-0.11l0.02,0.06c-0.04-0.05-0.06-0.04-0.09-0.13c0.01,0.06,0.03,0.1,0.06,0.12
							c-0.06-0.07-0.05,0.02-0.1-0.03c0.02,0.03,0.05,0.1,0.04,0.1c-0.07-0.05,0.02,0.12,0,0.15c-0.05-0.08-0.07-0.21-0.08-0.13
							c-0.04-0.05-0.06-0.15-0.07-0.2c0.01,0.12-0.08-0.05-0.11-0.07l0-0.05c0,0.03-0.01,0.03-0.01,0.04l0.05,0.11
							c-0.02-0.02-0.02-0.01-0.04-0.06c0.02,0.08,0.08,0.19,0.1,0.3c-0.03-0.05-0.02,0.08-0.07-0.08c0.06,0.04-0.06-0.15-0.04-0.19
							c0,0.02-0.01,0.02-0.02,0.01c-0.01-0.02-0.01-0.03-0.01-0.04c-0.08-0.13,0.05,0.18,0.01,0.19c-0.03-0.09-0.07-0.16-0.07-0.14
							c0.02,0,0.06,0.14,0.07,0.21c-0.05-0.06-0.01,0.06-0.02,0.06l0.03,0.03c0.03,0.09,0.01,0.08,0,0.12
							c-0.02-0.07,0-0.05-0.02-0.08c0.03,0.16-0.1-0.14-0.09-0.03c-0.03-0.06-0.06-0.16-0.08-0.2c0.01,0.12-0.07-0.11-0.07-0.01
							c0.05,0.12,0.04,0.09,0.06,0.21l0.02-0.1l0.02,0.18c0.02,0,0.01-0.08,0.02-0.07c0.02,0.1,0.01,0.07,0.05,0.17
							c-0.08-0.17-0.01,0.12-0.07,0.01l-0.09-0.29c-0.08-0.12-0.02,0.17-0.09,0.11l0.03,0.05c0.03,0.12-0.02,0.03-0.03,0.08
							c-0.03-0.1-0.05-0.13-0.08-0.19c0.02,0.07-0.04,0,0.02,0.2l-0.06-0.12c-0.06-0.04,0.04,0.29-0.01,0.27
							c-0.02-0.11-0.06-0.18-0.06-0.26c-0.01,0-0.03-0.01-0.01,0.06c-0.03-0.06,0,0.14-0.04,0.05c0.01,0.04,0.04,0.15,0.02,0.14
							c-0.01-0.02-0.01-0.05-0.01-0.05c0.01,0.05,0,0.07,0.04,0.18c-0.13-0.3-0.1,0.05-0.21-0.2c-0.02,0.04-0.04,0.08-0.07,0.1
							c-0.01-0.03-0.01-0.05-0.01-0.04c-0.06-0.08,0.05,0.29-0.01,0.2c-0.06-0.16,0-0.09-0.03-0.15c-0.09-0.33-0.04,0.06-0.11-0.13
							l0-0.02c-0.05-0.11-0.02,0.14-0.06,0.12c0,0-0.01-0.03-0.01-0.05c0.02,0.17-0.01,0.24-0.03,0.29c-0.02-0.13,0-0.07-0.04-0.2
							c-0.01,0.02,0.06,0.21,0.03,0.25c-0.03-0.07-0.06-0.12-0.1-0.26l0.03-0.01c-0.06-0.18-0.03,0.01-0.06-0.01l-0.02-0.08
							c-0.04,0.04,0.01,0.23-0.04,0.23l0.02,0.06c0.02,0.2-0.05-0.11-0.04,0.05l-0.05-0.2c-0.01,0.05-0.01,0.21-0.04,0.25
							c-0.02-0.15,0-0.24,0-0.33c-0.02,0-0.05,0.03-0.04,0.13c0-0.02,0-0.07,0.01-0.04c0.01,0.16,0.01,0.25-0.03,0.25
							c-0.08-0.39-0.11-0.08-0.19-0.38c-0.03,0.16-0.12-0.04-0.18,0c0.08,0.3-0.02,0.01,0.04,0.32c-0.01,0.02-0.02,0.02-0.02,0
							l-0.08-0.18c-0.03-0.09,0-0.07-0.01-0.14c-0.04-0.02-0.04-0.13-0.07-0.21c0.02,0.11,0.02,0.16-0.01,0.12l0.05,0.14
							c-0.02,0.17-0.09-0.26-0.1-0.08l0-0.1c-0.01,0.06-0.09,0.01-0.07,0.27c-0.01-0.04-0.03-0.12-0.02-0.14
							c-0.06-0.03-0.09,0.29-0.16,0.14l-0.01-0.08c-0.01,0.02,0,0.15-0.02,0.07c0-0.03-0.01-0.08-0.01-0.08
							c0,0.03-0.01,0.14-0.03,0.1l0-0.09c-0.07-0.09-0.06,0.22-0.1,0.28c-0.03-0.23-0.08-0.29-0.11-0.33l0-0.03
							c-0.07-0.02-0.09,0.2-0.14,0.3c-0.07-0.24-0.14-0.09-0.22-0.22c0.01,0.04,0.02,0.18,0.01,0.2c-0.02-0.05-0.03,0.16-0.04-0.05
							l0.01,0c-0.03-0.2-0.05-0.15-0.08-0.15l0.02,0.27c-0.09-0.39-0.15,0.16-0.21-0.2c-0.01,0.07-0.03,0.07-0.04,0.14l-0.01-0.15
							c-0.04-0.04-0.06-0.05-0.11-0.02l0-0.11c-0.03-0.01-0.01,0.43-0.04,0.44l-0.02-0.22c-0.05,0.01-0.11-0.18-0.15,0.02
							c0-0.03,0-0.1,0.01-0.11c-0.02,0-0.09-0.15-0.08,0.16c-0.01-0.2-0.05-0.02-0.08,0.07l0-0.15c-0.02,0.19-0.02,0.24-0.05,0.29
							c-0.01-0.02-0.01-0.12,0-0.08c-0.03-0.08-0.02,0.14-0.05,0.06l0.01-0.09c-0.03-0.01-0.02,0.04-0.04,0.15
							c-0.02,0.06-0.05-0.04-0.06-0.17c0,0.08-0.02,0.19-0.03,0.15c0-0.05,0-0.08,0.01-0.1c-0.04-0.1-0.06,0.17-0.09,0.03
							c0-0.05,0-0.07-0.01-0.09c0.03,0,0.06,0.01,0.06,0.02c0-0.13-0.03-0.16-0.01-0.34c-0.02,0.1-0.06,0.32-0.09,0.26
							c0-0.01,0-0.03,0-0.05l0-0.01c-0.01-0.01-0.01,0-0.02,0.02c-0.01-0.02-0.01-0.04-0.02-0.04c0-0.11-0.03-0.06-0.04-0.07
							c0,0.15-0.02,0.12,0,0.24c0-0.01,0-0.02,0.01-0.02c0,0,0-0.01,0.01-0.02l0,0.01c0.01,0,0.02-0.01,0.03-0.01
							c-0.01,0.07-0.02,0.14-0.04,0.06c-0.01,0.09-0.02,0.19-0.02,0.24c-0.02-0.2-0.05-0.31-0.06-0.44
							c-0.04,0.08-0.1,0.05-0.13,0.33c-0.01,0.03-0.01-0.08-0.02-0.12c0.01-0.03,0.02-0.02,0.02-0.06
							c-0.03,0.07-0.07,0.02-0.08,0.22c-0.03-0.09,0.02-0.18-0.02-0.15l0.01-0.06c-0.07-0.31-0.15,0.48-0.23,0.09
							c0.01,0.02,0.01,0.04,0.01,0.07c-0.09-0.18-0.23,0.15-0.31-0.13c-0.02-0.06-0.04,0.06-0.06,0.16l0.01-0.16l-0.05,0.18
							c-0.06,0.13-0.04-0.39-0.12-0.15l0,0.11c-0.02-0.02-0.07,0.06-0.05-0.06c0,0.02-0.02,0.11-0.02,0.05l0.01-0.08l-0.06,0.14
							c-0.03-0.06,0.04-0.32-0.01-0.35c-0.02,0.03-0.08,0.23-0.08,0.29c0.01,0,0.02,0.05,0.01,0.13l-0.02,0.04
							c-0.03,0.24-0.07,0.49-0.04,0.66l0.05-0.14l0,0.12l-0.03,0c0,0.11,0.03,0.02,0.04-0.05c0,0.06,0,0.11,0,0.13l0.06-0.23
							c-0.01,0.09-0.03,0.19-0.02,0.24c0.03-0.11,0.01-0.21,0.04-0.28c0.01,0.11-0.01,0.2,0.02,0.11c0,0.06-0.01,0.1-0.02,0.13
							c0.02-0.07,0.05-0.03,0.07-0.15c0,0.14,0.06-0.03,0.04,0.2c0.01-0.05,0.05-0.18,0.06-0.18c-0.05,0.27,0.06,0.02,0.03,0.31
							c0.04-0.24,0.09-0.1,0.13-0.24c0,0.02-0.01,0.06-0.01,0.05c0.02,0.02,0.02,0.1,0.03,0.14c0.02-0.2,0.05-0.25,0.08-0.37
							c0.01,0.2-0.03,0.24-0.04,0.43c0.01-0.16,0.06-0.16,0.06-0.3c0.01,0.12,0.01,0.06,0.01,0.23c0.02-0.25,0.02-0.04,0.05-0.2
							c0.02,0.13-0.01,0.24,0.03,0.16C448.89,156.62,448.86,156.71,448.86,156.71z M449.62,156.29L449.62,156.29
							c-0.01,0.01-0.02,0.01-0.02,0.01S449.61,156.3,449.62,156.29z M449.68,156.29c-0.01-0.01-0.02-0.01-0.03-0.01
							c0-0.05,0-0.1,0.01-0.1C449.66,156.22,449.67,156.25,449.68,156.29z M449.56,155.28c0.01-0.02,0.01,0.01,0.01,0.04
							c0,0-0.01,0.01-0.02,0.02l0,0.02C449.55,155.32,449.56,155.3,449.56,155.28z"/>
						<path class="st30" d="M449.54,155.47l0,0.01c0,0.01,0,0.02,0.01,0.03L449.54,155.47L449.54,155.47z"/>
						<path class="st30" d="M454.68,154.54L454.68,154.54c0,0,0.01,0.01,0.01,0.01L454.68,154.54z"/>
						<polygon class="st30" points="450.56,156.54 450.56,156.5 450.55,156.53 						"/>
						<path class="st30" d="M455.26,154.7l0.03,0.02C455.28,154.71,455.27,154.71,455.26,154.7z"/>
						<path class="st30" d="M455.4,154.59l0.06,0.01C455.42,154.59,455.41,154.59,455.4,154.59z"/>
						<path class="st30" d="M455.54,154.51c-0.02-0.01-0.04-0.03-0.05-0.04l0,0L455.54,154.51z"/>
						<path class="st30" d="M453.94,155.74L453.94,155.74C453.93,155.78,453.94,155.77,453.94,155.74z"/>
						<path class="st30" d="M454.33,155.23c0,0.03,0.01,0.05,0.01,0.07C454.35,155.31,454.36,155.31,454.33,155.23z"/>
						<polygon class="st30" points="453.41,156.1 453.41,156.09 453.4,156.1 						"/>
						<path class="st30" d="M454.31,155.31c0.02,0.02,0.03,0.01,0.02-0.01C454.33,155.3,454.31,155.29,454.31,155.31z"/>
						<path class="st30" d="M455.82,153.88L455.82,153.88c0-0.01-0.01-0.01-0.02-0.01L455.82,153.88z"/>
						<path class="st30" d="M455.8,153.87l-0.02-0.01C455.79,153.86,455.79,153.87,455.8,153.87z"/>
						<path class="st30" d="M455.75,153.84l0.04,0.02C455.79,153.85,455.79,153.85,455.75,153.84z"/>
						<path class="st30" d="M455.72,154.09l0.05,0.01C455.76,154.1,455.75,154.09,455.72,154.09z"/>
						<path class="st30" d="M455.72,154.15c0.02-0.01,0.12-0.01,0.09-0.04l-0.04-0.01C455.85,154.13,455.64,154.12,455.72,154.15z"
							/>
						<path class="st30" d="M455.04,154.1l0.05-0.01c-0.05-0.02-0.12-0.05-0.13-0.06C454.8,153.98,455.08,154.08,455.04,154.1z"/>
						<path class="st30" d="M454.93,154.13c-0.01-0.03-0.07-0.04-0.09-0.06C454.87,154.1,454.88,154.11,454.93,154.13z"/>
						<path class="st30" d="M454.42,154.57l-0.07-0.12C454.35,154.47,454.38,154.5,454.42,154.57z"/>
						<polygon class="st30" points="454.61,155.25 454.66,155.31 454.61,155.2 						"/>
						<polygon class="st30" points="454.1,154.44 454.1,154.42 454.1,154.47 						"/>
						<path class="st30" d="M452.9,154.91l0.05,0.16C452.95,155.03,452.9,154.85,452.9,154.91z"/>
						<path class="st30" d="M452.37,155.21c-0.02-0.08-0.05-0.13-0.04-0.05C452.34,155.17,452.37,155.23,452.37,155.21z"/>
						<polygon class="st30" points="450.62,155.21 450.62,155.16 450.61,155.21 						"/>
					</g>
				</g>
			</g>
		</g>
	</g>
	<g>
		<g>
			<g>
				<g>
					<g>
						<path class="st30" d="M409.14,154.32c-0.04,0.03-0.11,0.09-0.09,0.09l0.14-0.11L409.14,154.32z"/>
						<path class="st30" d="M408.93,154.57c0.07-0.05,0.19-0.14,0.3-0.25c-0.13,0.1-0.08,0.06-0.24,0.18
							c-0.02,0.01,0.03-0.05,0.08-0.09c-0.04,0.03,0.02-0.03-0.07,0.03c-0.09,0.09-0.09,0.11,0,0.05
							C408.99,154.52,408.96,154.55,408.93,154.57z"/>
						<path class="st30" d="M409.49,155.35l0-0.02C409.49,155.34,409.49,155.35,409.49,155.35z"/>
						<path class="st30" d="M410,155.68c-0.01,0-0.01,0.02-0.02,0.03C409.99,155.7,410,155.69,410,155.68z"/>
						<path class="st30" d="M410.04,155.89c0-0.01,0-0.01,0-0.01C410.04,155.89,410.04,155.9,410.04,155.89z"/>
						<path class="st30" d="M409.49,155.35l-0.01,0.06C409.51,155.36,409.49,155.37,409.49,155.35z"/>
						<path class="st30" d="M409.31,154.37c-0.01,0-0.02,0.01-0.04,0.03c0.01,0,0.02-0.01,0.02-0.01L409.31,154.37z"/>
						<path class="st30" d="M409.19,155.33L409.19,155.33c-0.02,0.01-0.03,0.03-0.05,0.05L409.19,155.33z"/>
						<path class="st30" d="M409,155.23c0,0.01,0.09-0.11,0.13-0.16c-0.04,0.05-0.06,0.07-0.07,0.07
							C409.04,155.17,409.02,155.19,409,155.23z"/>
						<path class="st30" d="M408.92,154.82l-0.02,0.01L408.92,154.82z"/>
						<path class="st30" d="M409.3,155.44c-0.01,0.02-0.02,0.04-0.03,0.05L409.3,155.44z"/>
						<path class="st30" d="M414.67,154.77c0,0.01,0,0.02,0,0.03C414.67,154.78,414.67,154.77,414.67,154.77z"/>
						<polygon class="st30" points="414.85,155.51 414.84,155.52 414.84,155.6 						"/>
						<path class="st30" d="M410.18,156.13L410.18,156.13C410.17,156.14,410.18,156.13,410.18,156.13z"/>
						<path class="st30" d="M411.95,156.2c-0.02-0.13,0.03-0.17-0.01-0.31C411.95,155.94,411.92,156.11,411.95,156.2z"/>
						<path class="st30" d="M409.3,154.39L409.3,154.39C409.31,154.39,409.3,154.39,409.3,154.39z"/>
						<polygon class="st30" points="411.94,155.88 411.94,155.88 411.94,155.87 						"/>
						<path class="st30" d="M410.65,156.14c0-0.03,0-0.05,0.01-0.06C410.65,156.09,410.65,156.11,410.65,156.14z"/>
						<path class="st30" d="M410.37,155.87l0,0.02C410.37,155.87,410.37,155.87,410.37,155.87z"/>
						<path class="st30" d="M410.85,155.96c0,0.01,0,0.03,0.01,0.01l0-0.02C410.85,155.97,410.85,155.98,410.85,155.96z"/>
						<polygon class="st30" points="411.02,155.98 411.02,155.95 411.01,155.96 						"/>
						<path class="st30" d="M414.14,154.84c0,0.04,0.01,0.09,0.01,0.13C414.14,154.86,414.17,154.83,414.14,154.84z"/>
						<path class="st30" d="M409.25,154.43c0.03-0.03,0.04-0.04,0.05-0.04l-0.01,0C409.28,154.41,409.26,154.42,409.25,154.43z"/>
						<path class="st30" d="M411.01,154.82l0.02,0.02C411.03,154.83,411.02,154.82,411.01,154.82z"/>
						<path class="st30" d="M412.96,154.93l0-0.02C412.96,154.91,412.96,154.91,412.96,154.93z"/>
						<path class="st30" d="M411.1,154.83c0,0.05,0,0.08,0,0.1c0-0.01,0-0.02,0.01-0.04L411.1,154.83z"/>
						<path class="st30" d="M414.15,154.97L414.15,154.97L414.15,154.97z"/>
						<path class="st30" d="M414.33,154.62c-0.03,0-0.01,0.19-0.02,0.3c-0.03,0.05-0.01-0.14-0.03-0.24
							c-0.02,0.05-0.03,0.23-0.05,0.22c0-0.03,0-0.04,0-0.08c-0.02,0.15-0.06,0.01-0.08,0.2l0-0.05c0,0.1,0.01,0.19,0.01,0.26
							c-0.01,0-0.02,0.12-0.02,0c0.01,0,0.01-0.05,0.01-0.09l-0.01,0.05c-0.01-0.18,0.01-0.06,0.01-0.2
							c-0.02,0.06-0.05,0.21-0.06,0.16c-0.01-0.18,0.04-0.06,0.01-0.22l0.03,0.07c-0.03-0.28,0.02,0.02-0.01-0.28
							c-0.04-0.05-0.04,0.09-0.08,0.04c0,0.1,0,0.15,0,0.24c-0.04,0.18-0.06-0.44-0.09-0.21c-0.01,0.12,0,0.34-0.03,0.22l0-0.2
							c-0.04-0.02-0.01,0.29-0.05,0.15c0-0.08,0.02-0.07,0.02-0.09c-0.03-0.16-0.01,0.11-0.03,0.11l-0.01-0.18
							c-0.04,0.03-0.07,0.16-0.11,0.19c0-0.05,0-0.11-0.01-0.16c-0.05,0.09-0.11-0.02-0.17-0.12l-0.01,0.15c0,0-0.01-0.07-0.01-0.1
							c-0.02-0.06,0.01,0.1,0,0.16c-0.01,0.01-0.02-0.09-0.02-0.13c-0.03,0.13-0.08,0.28-0.12,0.12l0-0.05
							c-0.03-0.06-0.01,0.31-0.04,0.17l0-0.03c-0.06-0.06-0.12,0.08-0.18-0.14c0.01,0.22-0.07-0.09-0.05,0.21
							c-0.05-0.15-0.04-0.2-0.1-0.3c-0.01-0.01,0,0.19-0.02,0.23l-0.01-0.16l-0.01,0.17l-0.03-0.19l-0.01,0.04
							c0.01,0.01,0.02,0.07,0.02,0.12c-0.02,0.07-0.06-0.11-0.07-0.19l-0.04,0.14c0-0.06,0-0.09,0.01-0.13
							c-0.02,0.17-0.02-0.17-0.03-0.02c0.01,0.04,0.01,0.1,0.01,0.13c-0.02-0.1-0.05-0.09-0.07-0.05l0-0.11
							c-0.04-0.02-0.08,0.06-0.12,0.06c0.02,0.05,0.03,0.24,0.02,0.26l-0.02-0.17c0,0.11,0.02,0.06,0.01,0.19
							c-0.02-0.02-0.03-0.19-0.02-0.25l-0.02,0.06c0-0.05,0-0.08-0.01-0.14c0,0.11-0.05-0.17-0.04,0.02l-0.01-0.05
							c-0.04,0-0.06,0.06-0.09,0.07c0.01,0.15-0.01,0.11-0.01,0.23c-0.03-0.04-0.07-0.16-0.1-0.14c-0.02,0.07,0,0.12,0,0.21
							c-0.01-0.13-0.04-0.12-0.03-0.22c-0.04,0.02-0.05,0.03-0.09,0.14c0.01,0.05,0.02,0.08,0.02,0.12
							c-0.01,0.02-0.02-0.05-0.03-0.12l0-0.01c-0.04,0.2-0.14-0.38-0.17-0.1l0-0.01l-0.04,0.15c-0.02-0.02,0.01-0.1-0.01-0.18
							c-0.04,0.22-0.07-0.03-0.11,0.12c-0.04-0.39-0.1,0.03-0.15-0.22l0,0.09c-0.01,0.09-0.01-0.05-0.02-0.07
							c0,0.07,0.01,0.08,0.01,0.13c-0.09,0.11-0.17-0.14-0.25-0.22c-0.03-0.03-0.04,0.48-0.07,0.26l0.02-0.17
							c-0.07,0.2-0.12-0.01-0.2,0.16c0.01-0.04,0.01-0.09,0.02-0.09c0-0.13-0.05-0.01-0.06,0.09c-0.01-0.01,0.01-0.09,0-0.14
							c-0.01-0.07-0.05,0.16-0.04,0.03c0-0.02,0.01-0.04,0.01-0.05c-0.01,0.06-0.04-0.02-0.04,0.12c-0.02-0.07-0.05,0.06-0.06-0.03
							c-0.03,0.16-0.03-0.08-0.06,0.14c0.03-0.23-0.02-0.19-0.04-0.08c0.01-0.07,0-0.08,0.02-0.17c-0.02,0-0.04,0.04-0.05,0.16
							c0.01-0.28-0.1,0.21-0.06-0.14c-0.07,0.12-0.13,0.19-0.18,0.24c0.05-0.23,0.05-0.01,0.1-0.26c-0.06,0.09-0.12,0.28-0.15,0.22
							c0-0.03,0.03-0.1,0.04-0.14c-0.06,0.09-0.07-0.04-0.14,0.08c0.01-0.02,0.01-0.04,0.02-0.06c-0.01,0.01-0.01-0.04-0.03,0.07
							l0.01-0.03c-0.02,0.15-0.11,0.31-0.13,0.39c0.09-0.29-0.02-0.08,0.1-0.45c-0.01,0.02-0.03,0.07-0.05,0.14
							c0-0.02,0.01-0.06,0.03-0.14c-0.04,0.05-0.06,0.16-0.08,0.15c0.02-0.05,0.02-0.07,0.04-0.13c-0.04,0.09-0.08,0.19-0.08,0.14
							c0.01-0.03,0.02-0.07,0.02-0.07c-0.04,0.01-0.13,0.24-0.14,0.14c0.08-0.21,0.01-0.07,0.07-0.26l-0.04,0.05l-0.02,0.09
							c-0.02-0.01-0.08,0.12-0.07,0.06l0.04-0.07l-0.04,0.02l-0.01,0.08c-0.05,0.09-0.08,0.23-0.08,0.17
							c0.01-0.02-0.02-0.01,0.01-0.12l0,0c-0.03,0.06-0.06,0.11-0.06,0.06c0.02-0.06,0.07-0.2,0.09-0.24
							c-0.06,0.15-0.06,0.03-0.13,0.19c0.02-0.04,0.05-0.13,0.06-0.15l-0.05,0.12c0.01-0.04,0.01-0.06,0.04-0.14
							c-0.01-0.03-0.08,0.23-0.07,0.12c0.01-0.01,0.01-0.03,0.02-0.04c-0.01-0.06-0.09,0.05-0.09-0.02c0.07-0.18,0.04-0.03,0.1-0.19
							c-0.05,0.02-0.17,0.18-0.19,0.12l0,0.02c-0.12,0.25,0.03-0.14-0.04-0.03c0.01-0.02,0.07-0.13,0.06-0.11
							c0-0.05-0.08,0.04-0.15,0.1l0.04-0.06c0.02-0.06-0.02-0.05-0.02-0.09c-0.04,0.06-0.04,0.04-0.09,0.14
							c0.16-0.37-0.2,0.13-0.06-0.18c0,0,0.04-0.05,0.04-0.05l-0.07,0.03c-0.06,0.1-0.04,0.06-0.08,0.15
							c-0.04,0.06-0.08,0.1-0.09,0.09c0.06-0.06,0.11-0.16,0.14-0.22l-0.07,0.09c0.1-0.19-0.14,0.2-0.08,0.06l0.04-0.05
							c-0.03,0.02-0.08,0.08-0.08,0.06c0.08-0.12,0.05-0.05,0.11-0.14c-0.02,0-0.18,0.19-0.11,0.07c0.03-0.03,0.04-0.02,0.07-0.05
							c0.08-0.14,0.06-0.11,0.06-0.14l0,0l0.02-0.08l-0.02,0.04c-0.24,0.28-0.07,0.03-0.24,0.2c0.16-0.16,0.08-0.1,0.19-0.22
							c0.02-0.04,0.05-0.08,0.08-0.12c-0.09,0.09,0.05-0.09-0.08,0.04c0.03-0.04-0.01-0.01,0.08-0.11c-0.04,0.02-0.05,0.07-0.1,0.12
							c-0.13,0.12,0.1-0.19-0.09-0.04c-0.09,0.05-0.21,0.17-0.3,0.21c0.05-0.06,0.14-0.13,0.14-0.13c0.04-0.06,0.02-0.06-0.03-0.03
							c0.03-0.03,0.06-0.06,0.1-0.1c-0.02,0-0.14,0.12-0.09,0.06c0.04-0.04,0.11-0.1,0.15-0.13c-0.04,0.02-0.12,0.08-0.16,0.1
							c0.06-0.06,0.1-0.08,0.15-0.12c-0.04,0.02-0.09,0.03-0.19,0.11l-0.03,0.04c-0.01,0,0.09-0.08,0.11-0.1
							c0.09-0.06-0.02,0.05-0.06,0.08l-0.03,0.01c-0.21,0.21,0.07,0,0.07,0.03l-0.16,0.14l0.14-0.11c-0.04,0.04-0.12,0.13-0.15,0.14
							c-0.06,0.09,0.07-0.04-0.01,0.05c-0.01,0.01-0.02,0.02-0.03,0.03l0.06-0.03c-0.03,0.03-0.1,0.11-0.09,0.08
							c-0.06,0.11,0.15-0.08,0.05,0.04l-0.01,0.01c0.08-0.02,0.11-0.11,0.26-0.23l-0.25,0.3l0.11-0.12c0,0.01,0,0.02-0.05,0.07
							c0.08-0.07,0.04-0.05,0.12-0.12c-0.08,0.12,0.09-0.02-0.07,0.18c0.08-0.09,0.04-0.08,0.12-0.13
							c-0.17,0.21,0.05-0.02-0.01,0.09c-0.09,0.11-0.06,0.04-0.12,0.15c0.16-0.18,0,0.07,0.04,0.04c0.12-0.15,0.08-0.04,0.14-0.07
							c-0.04,0.05-0.02,0.11-0.03,0.19l-0.02,0.03c0.11-0.15,0.12-0.11,0.15-0.13c-0.06,0.09-0.09,0.13-0.13,0.17l0.02,0.01
							c0.04-0.05,0.06-0.07,0.08-0.08l-0.08,0.12c0.03,0.01,0.13-0.11,0.11-0.01c0.07-0.11,0.18-0.33,0.25-0.39
							c-0.04,0.06-0.1,0.17-0.12,0.19c0.01-0.01,0.04-0.05,0.03-0.02l-0.07,0.1c-0.02,0.05,0.06-0.08,0.06-0.07
							c-0.05,0.09-0.04,0.06-0.07,0.14c-0.01,0.01,0.01-0.04-0.01-0.01c0,0.02-0.02,0.08-0.05,0.15c0.03-0.05,0.07-0.12,0.09-0.13
							c0.03,0.01-0.06,0.11-0.07,0.16c0.04-0.06,0.02,0.01,0.1-0.12c0.01,0-0.03,0.07-0.05,0.1c0.04-0.05,0.06,0.01,0.13-0.14
							l0-0.01l0.01,0l0,0l0,0c0.11-0.11,0.04,0.12,0.1,0.08l-0.02,0.05c0.05-0.04,0.07-0.01,0.13-0.1c0.01,0-0.02,0.09-0.05,0.15
							c0.03-0.03,0.06-0.08,0.05,0.01c-0.05,0.07-0.03,0.08-0.05,0.05c0,0.05-0.02,0.13,0.06,0.01c-0.06,0.12-0.05,0.16-0.02,0.13
							l0.02-0.09c0.02-0.01,0.03,0,0.03,0.02l-0.07,0.16c-0.03,0.22,0.22-0.29,0.13,0.05c0.06-0.11,0-0.09,0.07-0.22
							c0.01,0.03-0.05,0.27-0.04,0.27c0,0.1,0.12-0.23,0.13-0.15c0.02-0.06,0.07-0.22,0.11-0.26c0.01,0.03-0.06,0.25-0.09,0.3
							c-0.01,0,0-0.02,0-0.04c-0.01,0.02-0.03,0.04-0.05,0.11l0.02-0.06c-0.01,0.06,0.02,0.07-0.01,0.16
							c0.04-0.05,0.04-0.09,0.04-0.13c0,0.1,0.05,0.02,0.06,0.08c0.01-0.03,0.03-0.1,0.03-0.1c0.02,0.09,0.05-0.11,0.09-0.12
							c-0.01,0.1-0.07,0.21-0.02,0.15c0,0.07-0.04,0.16-0.06,0.2c0.06-0.11,0.03,0.09,0.04,0.12l-0.03,0.04
							c0.02-0.03,0.02-0.02,0.03-0.02l0.02-0.12c0,0.02,0.01,0.03,0,0.08c0.03-0.08,0.05-0.2,0.09-0.3c0,0.06,0.05-0.06,0.01,0.1
							c-0.02-0.06-0.04,0.16-0.08,0.18c0.01-0.02,0.02-0.01,0.02,0.01c0,0.02-0.01,0.03-0.01,0.04c0,0.15,0.06-0.18,0.1-0.16
							c-0.03,0.09-0.03,0.17-0.02,0.15c-0.01-0.01,0.03-0.15,0.06-0.22c0.01,0.08,0.04-0.05,0.05-0.03l-0.01-0.04
							c0.03-0.09,0.03-0.07,0.06-0.1c-0.02,0.07-0.03,0.04-0.03,0.08c0.05-0.15,0,0.17,0.05,0.07c0,0.06-0.04,0.17-0.04,0.21
							c0.05-0.11,0,0.13,0.06,0.04c0.02-0.12,0.01-0.09,0.05-0.21l-0.07,0.08l0.07-0.17c-0.01,0-0.05,0.07-0.05,0.05
							c0.04-0.1,0.03-0.07,0.04-0.17c-0.02,0.19,0.06-0.1,0.06,0.03l-0.06,0.3c0.01,0.14,0.09-0.14,0.12-0.06l0-0.06
							c0.03-0.12,0.03-0.01,0.05-0.06c-0.02,0.1-0.02,0.14-0.02,0.2c0.01-0.08,0.03,0.01,0.07-0.19l0,0.14
							c0.03,0.06,0.09-0.28,0.11-0.24c-0.03,0.11-0.02,0.18-0.06,0.26c0.01,0,0.02,0.02,0.03-0.05c0,0.06,0.05-0.13,0.05-0.03
							c0.01-0.04,0.03-0.15,0.04-0.14c0,0.02-0.01,0.05-0.01,0.05c0.01-0.05,0.03-0.07,0.03-0.18c-0.01,0.32,0.1-0.01,0.1,0.26
							c0.03-0.03,0.06-0.06,0.08-0.07c0,0.03,0,0.05-0.01,0.04c0.02,0.1,0.05-0.29,0.07-0.18c0,0.17-0.03,0.09-0.02,0.15
							c-0.02,0.34,0.05-0.04,0.05,0.16l-0.01,0.02c0.01,0.12,0.05-0.12,0.08-0.1c0,0,0,0.03,0,0.05c0.03-0.17,0.07-0.23,0.1-0.27
							c-0.02,0.13-0.02,0.07-0.02,0.2c0.01-0.02,0.01-0.22,0.03-0.25c0,0.07,0.02,0.14,0.02,0.28l-0.02,0.01
							c0,0.19,0.03,0,0.04,0.03l0,0.08c0.04-0.02,0.05-0.23,0.09-0.21l0-0.06c0.03-0.2,0.01,0.11,0.04-0.04l0,0.21
							c0.02-0.05,0.05-0.2,0.08-0.24c-0.02,0.15-0.05,0.23-0.07,0.32c0.01,0,0.05-0.01,0.06-0.12c-0.01,0.02-0.01,0.07-0.02,0.04
							c0.02-0.16,0.04-0.24,0.07-0.24c-0.01,0.4,0.07,0.1,0.09,0.41c0.05-0.15,0.1,0.06,0.16,0.04c-0.03-0.31,0.02-0.01,0-0.33
							c0.01-0.02,0.02-0.02,0.02,0l0.05,0.19c0.01,0.09-0.01,0.07-0.01,0.14c0.03,0.02,0.02,0.13,0.04,0.22
							c-0.01-0.11,0-0.16,0.02-0.12l-0.03-0.15c0.04-0.17,0.05,0.27,0.08,0.1l-0.01,0.1c0.02-0.06,0.08,0,0.09-0.26
							c0.01,0.04,0.01,0.12,0.01,0.15c0.05,0.04,0.1-0.28,0.15-0.12l0,0.08c0.01-0.02,0.01-0.15,0.02-0.07c0,0.03,0,0.08,0.01,0.08
							c0-0.03,0.02-0.14,0.03-0.09l-0.01,0.09c0.06,0.1,0.06-0.22,0.1-0.27c0.02,0.23,0.06,0.3,0.08,0.34l0,0.03
							c0.06,0.02,0.08-0.2,0.13-0.29c0.05,0.25,0.12,0.09,0.18,0.23c-0.01-0.04-0.01-0.18-0.01-0.2c0.02,0.05,0.02-0.16,0.04,0.05
							l0,0c0.03,0.2,0.05,0.15,0.07,0.15l-0.02-0.27c0.08,0.39,0.12-0.16,0.18,0.2c0.01-0.07,0.02-0.07,0.03-0.14l0.01,0.15
							c0.04,0.03,0.05,0.05,0.09,0.01l0,0.11c0.02,0.01-0.01-0.43,0.02-0.44l0.02,0.22c0.04-0.01,0.1,0.18,0.12-0.02
							c0,0.03,0.01,0.1,0,0.11c0.02,0,0.08,0.14,0.05-0.16c0.02,0.2,0.04,0.02,0.06-0.07l0.01,0.14c0-0.19,0-0.24,0.02-0.29
							c0.01,0.02,0.01,0.12,0,0.08c0.03,0.07,0.01-0.14,0.04-0.06l0,0.09c0.02,0.01,0.02-0.04,0.02-0.15
							c0.01-0.06,0.04,0.03,0.05,0.16c0-0.08,0-0.19,0.02-0.15c0,0.05,0,0.08,0,0.1c0.04,0.1,0.04-0.17,0.07-0.03
							c0,0.05,0.01,0.07,0.01,0.09c-0.03,0-0.05-0.01-0.05-0.02c0.01,0.13,0.03,0.16,0.03,0.34c0.01-0.1,0.03-0.32,0.05-0.26
							c0,0.01,0,0.03,0.01,0.05l0,0.02c0.01,0.01,0.01,0,0.01-0.02c0.01,0.02,0.01,0.04,0.02,0.04c0.01,0.11,0.03,0.06,0.04,0.06
							c-0.01-0.15,0.01-0.12-0.01-0.24c0,0.01,0,0.02-0.01,0.02c0,0,0,0.01,0,0.02l0-0.01c-0.01,0-0.02,0.01-0.03,0.01
							c0-0.07,0.01-0.14,0.03-0.06c0-0.09,0-0.19,0-0.24c0.03,0.2,0.06,0.31,0.07,0.44c0.03-0.08,0.07-0.06,0.09-0.33
							c0.01-0.04,0.01,0.08,0.02,0.12c0,0.03-0.01,0.02-0.01,0.06c0.02-0.07,0.05-0.03,0.05-0.22c0.03,0.09-0.01,0.18,0.02,0.14
							l0,0.06c0.07,0.31,0.1-0.49,0.17-0.1c-0.01-0.02-0.01-0.04-0.01-0.07c0.08,0.17,0.17-0.16,0.24,0.11
							c0.02,0.06,0.03-0.07,0.04-0.16l0,0.16l0.03-0.18c0.04-0.13,0.04,0.39,0.09,0.14l0-0.11c0.01,0.02,0.05-0.06,0.04,0.06
							c0-0.02,0.01-0.11,0.01-0.05l0,0.08l0.05-0.14c0.02,0.06-0.03,0.33,0.01,0.34c0.02-0.03,0.06-0.24,0.06-0.29
							c-0.01,0-0.01-0.05-0.01-0.13l0.02-0.04c0.02-0.24,0.06-0.49,0.03-0.66l-0.04,0.15l0-0.12l0.02-0.01
							c-0.01-0.11-0.02-0.01-0.04,0.05c0-0.06,0-0.11,0-0.13l-0.04,0.23c0-0.09,0.02-0.19,0.01-0.24c-0.02,0.11,0,0.21-0.03,0.28
							c-0.01-0.11,0-0.2-0.02-0.11c0-0.06,0.01-0.1,0.02-0.13c-0.02,0.07-0.04,0.03-0.05,0.16c-0.01-0.14-0.05,0.03-0.04-0.2
							c-0.01,0.05-0.03,0.18-0.05,0.19c0.03-0.27-0.05-0.02-0.03-0.31c-0.03,0.25-0.07,0.11-0.1,0.24c0-0.02,0.01-0.06,0.01-0.05
							c-0.02-0.02-0.02-0.1-0.03-0.14c-0.01,0.2-0.03,0.25-0.05,0.38c-0.02-0.2,0.02-0.24,0.01-0.43c0,0.17-0.04,0.16-0.03,0.3
							c-0.01-0.12-0.01-0.06-0.02-0.23c0,0.25-0.02,0.04-0.03,0.2c-0.02-0.13-0.01-0.24-0.03-0.16
							C414.3,154.71,414.33,154.62,414.33,154.62z M413.74,155.08L413.74,155.08c0-0.01,0.01-0.01,0.01-0.01
							S413.74,155.07,413.74,155.08z M413.69,155.08c0.01,0.01,0.01,0.01,0.02,0c0,0.05,0.01,0.1,0,0.1
							C413.71,155.15,413.7,155.12,413.69,155.08z M413.85,156.09c-0.01,0.02-0.01-0.01-0.01-0.04c0,0,0.01-0.01,0.01-0.02l0-0.02
							C413.84,156.04,413.84,156.07,413.85,156.09z"/>
						<path class="st30" d="M413.85,155.9l0-0.01c0-0.01,0-0.02-0.01-0.03L413.85,155.9L413.85,155.9z"/>
						<path class="st30" d="M409.49,155.33L409.49,155.33c0,0,0-0.01,0.01-0.02L409.49,155.33z"/>
						<polygon class="st30" points="413,154.85 413.01,154.89 413.01,154.86 						"/>
						<path class="st30" d="M409.54,154.76l0.02-0.03C409.55,154.74,409.54,154.75,409.54,154.76z"/>
						<path class="st30" d="M409.47,154.68l0.02-0.05C409.48,154.66,409.47,154.67,409.47,154.68z"/>
						<path class="st30" d="M409.46,154.58c-0.02,0.02-0.03,0.03-0.04,0.05l0,0L409.46,154.58z"/>
						<path class="st30" d="M410.59,154.91L410.59,154.91C410.61,154.88,410.6,154.89,410.59,154.91z"/>
						<path class="st30" d="M410.14,155.13c0.01-0.02,0.03-0.05,0.03-0.06C410.17,155.06,410.17,155.06,410.14,155.13z"/>
						<polygon class="st30" points="411.01,154.81 411.01,154.82 411.01,154.82 						"/>
						<path class="st30" d="M410.19,155.08c0-0.03,0-0.03-0.02-0.01C410.17,155.09,410.17,155.1,410.19,155.08z"/>
						<polygon class="st30" points="409.28,154.32 409.28,154.31 409.26,154.33 						"/>
						<path class="st30" d="M409.26,154.33l-0.02,0.01C409.25,154.34,409.25,154.34,409.26,154.33z"/>
						<path class="st30" d="M409.22,154.35l0.03-0.02C409.25,154.34,409.25,154.33,409.22,154.35z"/>
						<path class="st30" d="M409.29,154.43l0.04-0.04C409.32,154.4,409.31,154.42,409.29,154.43z"/>
						<path class="st30" d="M409.33,154.44c0-0.01,0.07-0.09,0.04-0.08l-0.03,0.03C409.39,154.34,409.26,154.5,409.33,154.44z"/>
						<path class="st30" d="M408.99,155.02l0-0.05c-0.03,0.05-0.08,0.11-0.1,0.11C408.82,155.23,408.97,154.98,408.99,155.02z"/>
						<path class="st30" d="M409.02,155.15c-0.03,0.01-0.05,0.06-0.07,0.09C408.99,155.2,409,155.2,409.02,155.15z"/>
						<path class="st30" d="M409.64,155.53l-0.06,0.12C409.6,155.64,409.61,155.61,409.64,155.53z"/>
						<polygon class="st30" points="410.03,154.95 410.06,154.87 410,154.98 						"/>
						<polygon class="st30" points="409.75,155.86 409.74,155.88 409.78,155.84 						"/>
						<path class="st30" d="M410.97,156.1l0.01-0.16C410.98,155.97,410.95,156.15,410.97,156.1z"/>
						<path class="st30" d="M411.5,155.97c0,0.08,0.02,0.14,0.03,0.05C411.51,156.02,411.5,155.95,411.5,155.97z"/>
						<polygon class="st30" points="412.99,156.17 412.98,156.23 413,156.18 						"/>
					</g>
				</g>
			</g>
		</g>
	</g>
	<g>
		<g>
			<g>
				<g>
					<g>
						<path class="st31" d="M456.89,154.75c0-0.01-0.02-0.03-0.02-0.02l0.01,0.04L456.89,154.75z"/>
						<path class="st31" d="M456.79,154.71c0,0.02,0,0.06,0.03,0.1c-0.01-0.04,0-0.03-0.01-0.08c0.01-0.01,0.02,0,0.03,0.02
							c0-0.01,0.02,0,0.01-0.03c-0.03-0.02-0.05-0.02-0.05,0.02C456.79,154.73,456.79,154.72,456.79,154.71z"/>
						<path class="st31" d="M455.78,155.11L455.78,155.11L455.78,155.11z"/>
						<path class="st31" d="M455.15,155.34c0,0,0-0.01,0-0.01C455.15,155.33,455.15,155.34,455.15,155.34z"/>
						<path class="st31" d="M455.02,155.34L455.02,155.34L455.02,155.34z"/>
						<path class="st31" d="M455.78,155.11l-0.02-0.01C455.76,155.12,455.77,155.11,455.78,155.11z"/>
						<path class="st31" d="M456.7,154.87c0,0,0-0.01,0-0.01L456.7,154.87L456.7,154.87z"/>
						<polygon class="st31" points="456.04,154.96 456.04,154.96 456.04,154.94 						"/>
						<path class="st31" d="M456.24,154.86c-0.01,0,0.01,0.03,0.01,0.05c0-0.01,0-0.02,0-0.03
							C456.25,154.88,456.24,154.87,456.24,154.86z"/>
						<path class="st31" d="M456.59,154.77L456.59,154.77L456.59,154.77z"/>
						<path class="st31" d="M455.88,155.02c0,0-0.01-0.01-0.01-0.01L455.88,155.02z"/>
						<path class="st31" d="M449.71,156.51L449.71,156.51L449.71,156.51z"/>
						<polygon class="st31" points="449.45,156.32 449.46,156.32 449.46,156.3 						"/>
						<path class="st31" d="M454.81,155.36L454.81,155.36C454.82,155.35,454.81,155.36,454.81,155.36z"/>
						<path class="st31" d="M452.98,155.89c0.03,0.03-0.03,0.05,0.01,0.08C452.98,155.95,453.01,155.91,452.98,155.89z"/>
						<path class="st31" d="M456.69,154.87L456.69,154.87L456.69,154.87z"/>
						<polygon class="st31" points="452.99,155.97 452.99,155.97 452.99,155.97 						"/>
						<path class="st31" d="M454.36,155.53c0,0.01,0.01,0.01,0.01,0.01S454.37,155.54,454.36,155.53z"/>
						<path class="st31" d="M454.72,155.47L454.72,155.47L454.72,155.47z"/>
						<path class="st31" d="M454.2,155.63c-0.01,0-0.01-0.01-0.01,0l0,0C454.19,155.63,454.19,155.63,454.2,155.63z"/>
						<polygon class="st31" points="454.01,155.69 454.02,155.69 454.02,155.69 						"/>
						<path class="st31" d="M450.31,156.49l-0.01-0.03C450.31,156.48,450.28,156.49,450.31,156.49z"/>
						<path class="st31" d="M456.69,154.86c0,0.01,0,0.02,0,0.02l0,0C456.7,154.86,456.69,154.86,456.69,154.86z"/>
						<path class="st31" d="M454.27,155.91l-0.03,0C454.25,155.92,454.26,155.92,454.27,155.91z"/>
						<path class="st31" d="M451.73,156.39L451.73,156.39L451.73,156.39z"/>
						<path class="st31" d="M454.15,155.95c-0.01-0.01-0.02-0.02-0.02-0.02l0,0.01L454.15,155.95z"/>
						<path class="st31" d="M450.3,156.46L450.3,156.46L450.3,156.46z"/>
						<path class="st31" d="M450.1,156.55c0.03,0,0.01-0.05,0.02-0.07c0.04-0.01,0.02,0.04,0.03,0.06c0.02-0.01,0.04-0.06,0.06-0.06
							c0,0.01,0,0.01,0,0.02c0.02-0.04,0.07,0,0.1-0.05l0,0.01c0-0.02-0.01-0.05-0.01-0.07c0.01,0,0.02-0.03,0.03,0
							c-0.01,0-0.01,0.01-0.01,0.02l0.01-0.01c0.01,0.05-0.02,0.02-0.02,0.05c0.03-0.01,0.06-0.05,0.08-0.04
							c0.01,0.04-0.05,0.02-0.02,0.05l-0.03-0.02c0.03,0.07-0.02,0,0,0.07c0.04,0.01,0.05-0.02,0.09-0.01c0.01-0.02,0-0.04,0-0.06
							c0.06-0.05,0.05,0.11,0.09,0.05c0.01-0.03,0.01-0.09,0.05-0.06l-0.01,0.05c0.04,0,0.02-0.07,0.07-0.04
							c-0.01,0.02-0.03,0.02-0.03,0.02c0.03,0.04,0.02-0.03,0.04-0.03l0.01,0.04c0.04-0.01,0.09-0.04,0.14-0.05
							c0,0.01-0.01,0.03,0,0.04c0.06-0.02,0.13,0,0.19,0.02l0.02-0.04c0.01,0,0.01,0.02,0.01,0.02c0.02,0.01,0-0.02,0.01-0.04
							c0.01,0,0.02,0.02,0.01,0.03c0.04-0.04,0.11-0.08,0.16-0.04l-0.01,0.01c0.03,0.01,0.03-0.08,0.07-0.05l-0.01,0.01
							c0.07,0.01,0.15-0.03,0.21,0.02c0.01-0.06,0.07,0.02,0.07-0.06c0.04,0.03,0.03,0.05,0.1,0.07c0.02,0,0.02-0.05,0.04-0.06
							l0,0.04l0.02-0.04l0.02,0.05l0.02-0.01c-0.01,0-0.02-0.02-0.02-0.03c0.03-0.02,0.07,0.02,0.07,0.04l0.06-0.04
							c0,0.02-0.01,0.02-0.02,0.03c0.03-0.04,0.01,0.04,0.04,0c-0.01-0.01,0-0.02,0-0.03c0.02,0.02,0.06,0.02,0.08,0l0,0.03
							c0.05,0,0.1-0.03,0.16-0.03c-0.02-0.01-0.02-0.06-0.01-0.06l0.01,0.04c0.01-0.03-0.02-0.01,0-0.05c0.02,0,0.02,0.05,0.01,0.06
							l0.02-0.02c0,0.01,0,0.02,0,0.04c0.01-0.03,0.05,0.04,0.06-0.01l0,0.01c0.06-0.01,0.08-0.03,0.12-0.03
							c0-0.04,0.01-0.03,0.02-0.06c0.03,0.01,0.08,0.03,0.11,0.02c0.02-0.02,0-0.03,0.01-0.06c0.01,0.03,0.05,0.02,0.03,0.05
							c0.05-0.01,0.06-0.02,0.11-0.05c-0.01-0.01-0.02-0.02-0.02-0.03c0.01-0.01,0.03,0.01,0.03,0.03l0,0
							c0.06-0.06,0.17,0.07,0.21-0.01l0,0l0.05-0.05c0.03,0-0.01,0.03,0.01,0.04c0.05-0.07,0.1-0.01,0.14-0.06
							c0.06,0.09,0.13-0.03,0.2,0.02l-0.01-0.02c0.01-0.02,0.02,0.01,0.03,0.01c-0.01-0.02-0.02-0.02-0.01-0.03
							c0.11-0.05,0.24-0.02,0.36-0.03c0.04,0,0-0.12,0.06-0.08l0,0.05c0.07-0.07,0.17-0.04,0.24-0.11c0,0.01,0,0.02-0.01,0.03
							c0.03,0.03,0.06-0.02,0.06-0.04c0.01,0,0.01,0.02,0.02,0.03c0.02,0.01,0.03-0.05,0.05-0.02c0,0,0,0.01,0,0.01
							c0.01-0.02,0.05-0.01,0.03-0.04c0.04,0.01,0.05-0.03,0.08-0.02c0-0.04,0.06,0,0.05-0.05c0.01,0.06,0.07,0.03,0.08,0
							c0,0.02,0.02,0.01,0.02,0.04c0.02-0.01,0.04-0.02,0.03-0.05c0.06,0.05,0.06-0.08,0.11,0c0.06-0.05,0.11-0.09,0.16-0.12
							c0.02,0.06-0.06,0.03-0.04,0.08c0.05-0.04,0.07-0.1,0.12-0.1c0.02,0,0,0.03,0,0.04c0.05-0.04,0.11-0.03,0.15-0.08
							c0,0.01,0,0.01-0.01,0.02c0.01-0.01,0.03,0,0.02-0.02l-0.01,0.01c-0.03-0.03,0.01-0.09,0.01-0.11c0.01,0.08,0.05,0,0.06,0.1
							c0-0.01,0.01-0.02,0-0.04c0.01,0,0.02,0.01,0.01,0.03c0.03-0.03,0.01-0.05,0.04-0.06c0,0.01,0,0.02,0,0.03
							c0.01-0.03,0.02-0.06,0.05-0.06c0,0.01,0.01,0.02,0,0.02c0.04-0.02,0.05-0.09,0.11-0.08c0,0.06,0.02,0.01,0.04,0.06l0.02-0.02
							l-0.02-0.02c0.02-0.01,0.03-0.05,0.06-0.04l-0.01,0.03l0.04-0.03l-0.03-0.01c0.01-0.03-0.02-0.06,0.01-0.06
							c0,0.01,0.02-0.01,0.05,0.01l0,0c0.01-0.02,0.01-0.04,0.03-0.03c0.01,0.01,0.02,0.05,0.02,0.06c0-0.04,0.05-0.03,0.05-0.08
							c0,0.01,0.01,0.04,0.01,0.04l0-0.03c0.01,0.01,0.02,0.01,0.02,0.03c0.03-0.01-0.03-0.05,0.02-0.04c0,0,0,0.01,0,0.01
							c0.04,0,0.07-0.05,0.11-0.05c0.03,0.04-0.03,0.02,0,0.06c0.05-0.03,0.08-0.09,0.14-0.11l-0.01,0
							c-0.02-0.07,0.05,0.02,0.06-0.02c0,0.01,0.01,0.04,0.01,0.03c0.04,0,0.06-0.04,0.1-0.09l0,0.02c0.03,0.01,0.06-0.01,0.08-0.01
							c0-0.02,0.01-0.02,0-0.04c0.11,0.06,0.1-0.1,0.19-0.05c-0.01,0-0.01,0.02,0,0.02l0.04-0.04c-0.02-0.03-0.01-0.01-0.03-0.03
							c0-0.02,0.01-0.04,0.02-0.04c-0.01,0.03,0.02,0.04,0.04,0.05l-0.01-0.03c0.05,0.04-0.02-0.06,0.03-0.04l0,0.02
							c0.01-0.01,0.01-0.04,0.03-0.04c0.02,0.03-0.01,0.02,0,0.05c0.02-0.01,0.01-0.08,0.04-0.05c0,0.01-0.02,0.02-0.02,0.03
							c0.04,0.03,0.03,0.02,0.05,0.02l0,0l0.04,0l-0.01-0.01c-0.01-0.09,0.04-0.04,0.05-0.11c-0.01,0.07,0.01,0.03,0.02,0.07
							c0.01,0.01,0.03,0.01,0.03,0.02c0-0.04,0.04,0.01,0.04-0.04c0.01,0.01,0.02-0.01,0.03,0.02c0.02-0.02-0.01-0.02-0.02-0.03
							c0.01-0.05,0.1,0.01,0.11-0.06c0.03-0.04,0.02-0.08,0.04-0.12c0.02,0.01,0.01,0.05,0.01,0.05c0.03,0.01,0.04,0,0.05-0.03
							c0,0.01,0.01,0.02,0.02,0.03c0.01-0.01-0.01-0.05,0.02-0.04c0,0.01,0.01,0.04,0.01,0.05c0.01-0.02,0.02-0.05,0.03-0.07
							c0.01,0.02,0,0.04,0,0.05c0.02-0.02,0.04-0.04,0.03-0.08l-0.02,0c0.01-0.01,0.02,0.02,0.01,0.03c0,0.03-0.03,0-0.04-0.01
							l0.01-0.01c-0.05-0.06-0.05,0.04-0.07,0.05l-0.01-0.05l-0.01,0.05c-0.01-0.01-0.03-0.03-0.02-0.05
							c-0.03-0.01-0.01,0.03-0.04,0.01c0,0,0-0.01,0-0.01l-0.01,0.02c0-0.01-0.02-0.03-0.01-0.03c-0.05-0.01-0.03,0.06-0.06,0.03
							l0,0c-0.04,0.04,0.01,0.04,0,0.1l-0.07-0.08l0.01,0.04c-0.01,0-0.02,0-0.02-0.01c-0.01,0.03,0.01,0.01,0.01,0.04
							c-0.04-0.02-0.05,0.04-0.09-0.01c0,0.03,0.03,0.01,0.02,0.04c-0.04-0.06-0.02,0.02-0.06,0c-0.01-0.03,0.02-0.03-0.02-0.05
							c0.01,0.06-0.05,0.01-0.06,0.02c0.02,0.04-0.03,0.04-0.05,0.06c0-0.02-0.07,0-0.1,0l0-0.01c0.01,0.05-0.02,0.05-0.03,0.07
							c-0.01-0.03-0.01-0.04-0.01-0.06l-0.02,0.01c0,0.02,0,0.03-0.01,0.04l-0.01-0.03c-0.02,0.01-0.03,0.06-0.08,0.05
							c0.01,0.03,0.06,0.07,0.04,0.11c-0.01-0.02-0.02-0.04-0.02-0.05c0,0,0,0.02-0.01,0.01l0-0.03c-0.02-0.01,0,0.03-0.01,0.03
							c-0.01-0.02-0.02-0.01-0.02-0.03c0,0,0.01,0.01,0.02-0.01c-0.02,0-0.04-0.01-0.05-0.02c0.01,0.01,0.01,0.03,0.01,0.04
							c-0.02,0.01-0.02-0.02-0.04-0.03c0,0.02-0.02,0.01-0.01,0.04c-0.01,0-0.02-0.01-0.02-0.02c-0.01,0.02-0.06,0.03-0.03,0.06l0,0
							l0,0l0,0l0,0c-0.03,0.05-0.1,0.02-0.14,0.05l0-0.01c-0.02,0.02-0.05,0.03-0.06,0.07c-0.01,0-0.03-0.01-0.03-0.03
							c-0.02,0.02-0.01,0.03-0.05,0.02c0.01-0.03-0.01-0.02,0.01-0.02c-0.03,0-0.04-0.02-0.06,0.03c0-0.03-0.03-0.03-0.04-0.02
							l0.03,0.01c-0.01,0.01-0.03,0.01-0.04,0.01l-0.01-0.04c-0.07-0.03-0.06,0.12-0.13,0.05c0,0.03,0.04,0.01,0.04,0.05
							c-0.03,0-0.07-0.04-0.08-0.04c-0.04-0.01-0.01,0.07-0.05,0.07c0.01,0.01,0.03,0.05,0.01,0.07c-0.03,0-0.05-0.05-0.04-0.07
							c0.01,0,0.01,0,0.01,0.01c0.01-0.01,0.01-0.02,0-0.03l0,0.02c-0.02-0.01-0.05,0-0.05-0.02c-0.01,0.02,0,0.03,0.02,0.03
							c-0.04-0.01-0.05,0.02-0.09,0.02c0.01,0.01,0.02,0.02,0.01,0.02c-0.05,0-0.01,0.03-0.04,0.05c-0.03-0.02-0.01-0.06-0.04-0.03
							c-0.03-0.01-0.02-0.04-0.01-0.05c-0.02,0.04-0.06,0-0.08,0l0.01-0.02c-0.01,0.01-0.01,0.01-0.02,0.02l0.02,0.03
							c-0.01,0-0.02,0-0.02-0.01c0,0.02,0.02,0.05,0.01,0.08c-0.02-0.01-0.03,0.03-0.05-0.01c0.04,0-0.02-0.04,0.01-0.05
							c0,0.01-0.01,0.01-0.02,0.01l0-0.01c-0.05-0.02,0,0.05-0.04,0.06c0-0.02-0.02-0.04-0.03-0.03c0.02,0,0.02,0.03,0.01,0.06
							c-0.03-0.01-0.02,0.02-0.04,0.02l0.02,0c0,0.02-0.01,0.02-0.03,0.04c-0.01-0.02,0.01-0.02,0-0.02
							c-0.01,0.05-0.06-0.03-0.07,0.01c-0.02-0.01-0.01-0.04-0.03-0.05c-0.02,0.04-0.04-0.02-0.07,0.01
							c0.02,0.03,0.02,0.02,0.01,0.05l0.04-0.04l-0.02,0.05c0.02,0,0.03-0.03,0.04-0.03c-0.01,0.03-0.01,0.02,0.01,0.04
							c-0.04-0.04-0.03,0.04-0.07,0.02l-0.02-0.07c-0.05-0.02-0.05,0.06-0.11,0.05l0.02,0.01c0,0.03-0.03,0.01-0.04,0.03
							c-0.01-0.02-0.02-0.03-0.03-0.04c0.01,0.02-0.04,0.01-0.02,0.06l-0.03-0.03c-0.04,0-0.02,0.08-0.06,0.09
							c0-0.03-0.02-0.04,0-0.07c-0.01,0-0.03,0-0.02,0.02c-0.01-0.01-0.02,0.04-0.04,0.02c0,0.01,0,0.04-0.01,0.04
							c0,0,0-0.01,0-0.01c0,0.01-0.02,0.02,0,0.05c-0.06-0.07-0.11,0.04-0.16-0.02c-0.03,0.02-0.06,0.03-0.08,0.04
							c0-0.01,0-0.01,0-0.01c-0.04-0.01,0,0.08-0.05,0.06c-0.03-0.03,0.01-0.03,0-0.04c-0.03-0.08-0.04,0.02-0.08-0.02l0.01-0.01
							c-0.03-0.02-0.04,0.04-0.08,0.05c0,0,0-0.01,0-0.01c-0.01,0.05-0.05,0.07-0.08,0.09c0-0.03,0.01-0.02,0-0.05
							c-0.01,0.01,0.02,0.05-0.01,0.07c-0.01-0.02-0.04-0.03-0.05-0.06l0.03-0.01c-0.03-0.04-0.03,0.01-0.05,0.01l0-0.02
							c-0.04,0.02-0.03,0.07-0.07,0.07l0.01,0.01c-0.01,0.06-0.03-0.02-0.04,0.02l-0.02-0.05c-0.01,0.02-0.04,0.06-0.07,0.08
							c0.01-0.04,0.04-0.07,0.05-0.1c-0.02,0-0.05,0.02-0.06,0.04c0.01-0.01,0.01-0.02,0.02-0.01c-0.01,0.04-0.03,0.07-0.06,0.08
							c-0.02-0.1-0.09,0-0.13-0.08c-0.05,0.05-0.11,0.01-0.18,0.03c0.04,0.07-0.02,0.01,0,0.08c-0.01,0.01-0.02,0.01-0.02,0
							l-0.06-0.04c-0.02-0.02,0.01-0.02,0.01-0.04c-0.03,0-0.02-0.03-0.05-0.05c0.01,0.03,0,0.04-0.02,0.04l0.03,0.03
							c-0.04,0.05-0.05-0.06-0.09-0.01l0.01-0.03c-0.02,0.02-0.09,0.02-0.1,0.08c-0.01-0.01-0.02-0.03-0.01-0.04
							c-0.06,0-0.12,0.09-0.17,0.06l0-0.02c-0.01,0.01-0.01,0.04-0.03,0.02c0-0.01,0-0.02,0-0.02c0,0.01-0.02,0.04-0.04,0.03
							l0.01-0.02c-0.06-0.02-0.08,0.07-0.12,0.09c-0.01-0.06-0.06-0.07-0.08-0.07l0-0.01c-0.07,0-0.1,0.06-0.16,0.09
							c-0.05-0.06-0.13-0.01-0.2-0.03c0.01,0.01,0,0.04-0.01,0.05c-0.02-0.01-0.03,0.04-0.04-0.01l0.01,0
							c-0.02-0.05-0.04-0.03-0.07-0.03l0,0.07c-0.07-0.09-0.15,0.05-0.2-0.03c-0.01,0.02-0.03,0.02-0.04,0.04l0-0.04
							c-0.04-0.01-0.06-0.01-0.11,0.01l0.01-0.03c-0.03,0-0.03,0.11-0.05,0.11l-0.01-0.05c-0.05,0.01-0.1-0.04-0.15,0.01
							c0-0.01,0-0.02,0.01-0.03c-0.02,0-0.09-0.03-0.08,0.04c0-0.05-0.05,0-0.08,0.02l0-0.04c-0.02,0.05-0.02,0.06-0.05,0.08
							c-0.01,0-0.01-0.03,0-0.02c-0.03-0.02-0.02,0.04-0.05,0.02l0.01-0.02c-0.03,0-0.02,0.01-0.04,0.04
							c-0.02,0.02-0.05-0.01-0.05-0.04c0,0.02-0.01,0.05-0.03,0.04c0-0.01,0-0.02,0-0.02c-0.04-0.02-0.06,0.05-0.09,0.01
							c0-0.01-0.01-0.02-0.01-0.02c0.03,0,0.06,0,0.06,0c0-0.03-0.03-0.04-0.01-0.09c-0.02,0.03-0.06,0.08-0.08,0.07
							c0,0,0-0.01,0-0.01l0,0c-0.01,0-0.01,0-0.02,0.01c-0.01-0.01-0.01-0.01-0.02-0.01c0-0.03-0.03-0.01-0.05-0.01
							c0,0.04-0.02,0.03,0,0.06c0,0,0,0,0.01-0.01l0.01,0l0,0l0.03,0c-0.01,0.02-0.02,0.04-0.04,0.02
							c-0.01,0.02-0.01,0.05-0.02,0.06c-0.02-0.05-0.06-0.08-0.06-0.11c-0.04,0.02-0.1,0.02-0.12,0.09
							c-0.01,0.01-0.01-0.02-0.02-0.03c0.01-0.01,0.01-0.01,0.02-0.02c-0.02,0.02-0.07,0.01-0.07,0.06
							c-0.03-0.02,0.02-0.04-0.03-0.04l0.01-0.01c-0.08-0.08-0.13,0.12-0.22,0.03c0.01,0.01,0.01,0.01,0.01,0.02
							c-0.1-0.04-0.21,0.04-0.31-0.03c-0.03-0.01-0.03,0.02-0.05,0.04l-0.01-0.04l-0.03,0.04c-0.04,0.03-0.07-0.1-0.13-0.04
							l0.01,0.03c-0.02-0.01-0.06,0.01-0.06-0.02c0,0-0.01,0.03-0.01,0.01l0-0.02l-0.05,0.03c-0.04-0.02,0.01-0.08-0.04-0.09
							c-0.02,0.01-0.06,0.06-0.05,0.07c0.01,0,0.02,0.01,0.02,0.03l-0.02,0.01c-0.01,0.06-0.02,0.12,0.02,0.17l0.03-0.04l0.01,0.03
							l-0.03,0c0.01,0.03,0.02,0,0.04-0.01c0,0.02,0.01,0.03,0.01,0.03l0.03-0.06c0,0.02-0.02,0.05,0.01,0.06
							c0.02-0.03-0.01-0.05,0.01-0.07c0.01,0.03,0.01,0.05,0.03,0.03c0,0.02,0,0.03-0.01,0.03c0.02-0.02,0.04-0.01,0.05-0.04
							c0.01,0.03,0.05-0.01,0.05,0.05c0.01-0.01,0.03-0.04,0.04-0.05c-0.03,0.07,0.05,0.01,0.05,0.08c0.02-0.06,0.07-0.03,0.11-0.06
							c0,0-0.01,0.01-0.01,0.01c0.02,0.01,0.03,0.02,0.04,0.04c0-0.05,0.03-0.06,0.05-0.09c0.02,0.05-0.01,0.06-0.01,0.11
							c0-0.04,0.04-0.04,0.03-0.08c0.02,0.03,0.02,0.01,0.03,0.06c0-0.06,0.02-0.01,0.03-0.05c0.03,0.03,0.01,0.06,0.04,0.04
							C450.12,156.52,450.1,156.55,450.1,156.55z M450.79,156.42L450.79,156.42c-0.01,0-0.01,0-0.01,0S450.79,156.42,450.79,156.42z
							 M450.85,156.42c-0.01,0-0.02,0-0.03,0c0-0.01,0-0.03,0-0.03C450.83,156.4,450.84,156.41,450.85,156.42z M450.72,156.17
							c0.01-0.01,0.01,0,0.01,0.01c0,0-0.01,0-0.02,0.01l0,0C450.71,156.18,450.72,156.17,450.72,156.17z"/>
						
							<rect x="450.7" y="156.22" transform="matrix(0.7936 -0.6084 0.6084 0.7936 -2.0265 306.4647)" class="st31" width="0.01" height="0.01"/>
						<polygon class="st31" points="455.79,155.12 455.79,155.12 455.79,155.12 						"/>
						<polygon class="st31" points="451.66,156.42 451.66,156.41 451.66,156.42 						"/>
						<path class="st31" d="M456.13,155.1L456.13,155.1L456.13,155.1z"/>
						<path class="st31" d="M456.26,155.05l0.02,0C456.27,155.05,456.27,155.05,456.26,155.05z"/>
						<path class="st31" d="M456.37,155.02c0-0.01,0-0.02,0-0.02l0,0L456.37,155.02z"/>
						<path class="st31" d="M454.8,155.7L454.8,155.7C454.79,155.71,454.8,155.71,454.8,155.7z"/>
						<path class="st31" d="M455.25,155.45c0,0.01-0.01,0.02-0.01,0.02C455.25,155.47,455.26,155.47,455.25,155.45z"/>
						<polygon class="st31" points="454.28,155.91 454.28,155.91 454.27,155.91 						"/>
						<path class="st31" d="M455.22,155.48c0.01,0,0.02,0,0.02-0.01C455.23,155.47,455.23,155.47,455.22,155.48z"/>
						<polygon class="st31" points="456.79,154.83 456.79,154.83 456.79,154.83 						"/>
						<path class="st31" d="M456.79,154.83L456.79,154.83L456.79,154.83z"/>
						<path class="st31" d="M456.8,154.81l-0.01,0.01C456.8,154.82,456.8,154.82,456.8,154.81z"/>
						<path class="st31" d="M456.65,154.88l0,0.01C456.66,154.9,456.66,154.89,456.65,154.88z"/>
						<path class="st31" d="M456.62,154.91c0.01,0,0.04,0.01,0.04,0l0-0.01C456.66,154.92,456.62,154.88,456.62,154.91z"/>
						<path class="st31" d="M456.39,154.84l0.04-0.01c-0.01-0.01-0.03-0.02-0.01-0.03C456.35,154.78,456.43,154.82,456.39,154.84z"
							/>
						<path class="st31" d="M456.28,154.87c0.01-0.01-0.01-0.02-0.01-0.03C456.26,154.86,456.26,154.86,456.28,154.87z"/>
						<path class="st31" d="M455.55,155.19l-0.01-0.03C455.53,155.16,455.54,155.17,455.55,155.19z"/>
						<polygon class="st31" points="455.47,155.4 455.49,155.42 455.48,155.38 						"/>
						<polygon class="st31" points="455.3,155.21 455.3,155.21 455.28,155.23 						"/>
						<path class="st31" d="M454.04,155.65l0.02,0.04C454.06,155.67,454.05,155.63,454.04,155.65z"/>
						<path class="st31" d="M453.49,155.83c-0.01-0.02-0.03-0.03-0.03-0.01C453.47,155.83,453.48,155.84,453.49,155.83z"/>
						<polygon class="st31" points="451.78,156.07 451.79,156.06 451.77,156.07 						"/>
					</g>
				</g>
			</g>
		</g>
	</g>
	<g>
		<g>
			<g>
				<g>
					<g>
						<path class="st31" d="M409.1,155.5c-0.01,0.01-0.01,0.04,0,0.03l0.02-0.04L409.1,155.5z"/>
						<path class="st31" d="M409.14,155.59c0.02-0.02,0.04-0.05,0.04-0.09c-0.02,0.04-0.02,0.02-0.04,0.07
							c-0.01,0-0.01-0.02-0.01-0.03c-0.01,0.01-0.01-0.01-0.02,0.01c0,0.04,0.02,0.04,0.04,0.02
							C409.15,155.57,409.14,155.58,409.14,155.59z"/>
						<path class="st31" d="M410.05,155.84L410.05,155.84L410.05,155.84z"/>
						<path class="st31" d="M410.63,155.95L410.63,155.95C410.63,155.95,410.63,155.95,410.63,155.95z"/>
						<path class="st31" d="M410.73,156.01L410.73,156.01L410.73,156.01z"/>
						<path class="st31" d="M410.05,155.84l0.01,0.02C410.07,155.84,410.06,155.85,410.05,155.84z"/>
						<path class="st31" d="M409.29,155.52c0,0-0.01,0-0.01,0.01L409.29,155.52L409.29,155.52z"/>
						<polygon class="st31" points="409.79,155.83 409.79,155.83 409.78,155.85 						"/>
						<path class="st31" d="M409.6,155.8c0,0,0.01-0.03,0.02-0.05c-0.01,0.01-0.01,0.02-0.01,0.02
							C409.6,155.78,409.6,155.79,409.6,155.8z"/>
						<path class="st31" d="M409.3,155.67L409.3,155.67L409.3,155.67z"/>
						<path class="st31" d="M409.93,155.87c0,0.01,0,0.01,0,0.01L409.93,155.87z"/>
						<path class="st31" d="M415.38,155.3L415.38,155.3L415.38,155.3z"/>
						<polygon class="st31" points="415.65,155.41 415.65,155.42 415.65,155.44 						"/>
						<path class="st31" d="M410.91,156.07L410.91,156.07C410.9,156.07,410.91,156.07,410.91,156.07z"/>
						<path class="st31" d="M412.61,156.08c-0.02-0.03,0.03-0.04,0-0.08C412.61,156.02,412.58,156.06,412.61,156.08z"/>
						<path class="st31" d="M409.3,155.52L409.3,155.52L409.3,155.52z"/>
						<polygon class="st31" points="412.6,156 412.6,156 412.6,156 						"/>
						<path class="st31" d="M411.33,156.08c0-0.01,0-0.02,0-0.02S411.33,156.07,411.33,156.08z"/>
						<path class="st31" d="M411.02,156.01L411.02,156.01L411.02,156.01z"/>
						<path class="st31" d="M411.5,156.04c0,0,0.01,0.01,0.01,0L411.5,156.04C411.51,156.04,411.51,156.04,411.5,156.04z"/>
						<polygon class="st31" points="411.67,156.04 411.67,156.03 411.66,156.04 						"/>
						<path class="st31" d="M414.89,155.45l0.02,0.03C414.9,155.46,414.92,155.44,414.89,155.45z"/>
						<path class="st31" d="M409.29,155.54c0-0.01,0.01-0.01,0.01-0.01l-0.01,0C409.29,155.53,409.29,155.54,409.29,155.54z"/>
						<path class="st31" d="M411.52,155.75l0.03,0.01C411.54,155.75,411.53,155.75,411.52,155.75z"/>
						<path class="st31" d="M413.71,155.68L413.71,155.68L413.71,155.68z"/>
						<path class="st31" d="M411.63,155.75c0,0.01,0.01,0.02,0.01,0.03l0-0.01L411.63,155.75z"/>
						<path class="st31" d="M414.91,155.48L414.91,155.48L414.91,155.48z"/>
						<path class="st31" d="M415.05,155.35c-0.02,0.01,0,0.05,0,0.08c-0.03,0.02-0.02-0.03-0.04-0.05
							c-0.02,0.02-0.02,0.06-0.03,0.06c0-0.01-0.01-0.01-0.01-0.02c-0.01,0.04-0.06,0.02-0.07,0.07l-0.01-0.01
							c0.01,0.02,0.02,0.05,0.02,0.06c-0.01,0-0.01,0.03-0.02,0.01c0.01,0,0-0.01,0.01-0.02l-0.01,0.02c-0.02-0.04,0.01-0.02,0-0.05
							c-0.02,0.02-0.04,0.06-0.06,0.05c-0.01-0.04,0.04-0.02,0-0.06l0.03,0.01c-0.04-0.06,0.02,0-0.02-0.07
							c-0.04,0-0.03,0.03-0.07,0.03c0,0.03,0.01,0.03,0.01,0.06c-0.04,0.05-0.06-0.1-0.09-0.03c0,0.03,0.01,0.09-0.03,0.06l0-0.05
							c-0.04,0,0,0.07-0.05,0.05c0-0.02,0.02-0.02,0.02-0.03c-0.03-0.03-0.01,0.03-0.03,0.04l-0.01-0.04
							c-0.03,0.01-0.07,0.05-0.11,0.07c0-0.01,0-0.03-0.01-0.04c-0.05,0.03-0.11,0.02-0.16,0l-0.01,0.04c0,0-0.01-0.02-0.01-0.02
							c-0.02-0.01,0,0.02,0,0.04c-0.01,0-0.02-0.02-0.01-0.03c-0.03,0.04-0.08,0.09-0.13,0.05l0.01-0.01
							c-0.03-0.01-0.02,0.08-0.05,0.05l0-0.01c-0.06-0.01-0.13,0.04-0.18-0.01c0,0.06-0.06-0.02-0.06,0.06
							c-0.04-0.03-0.03-0.05-0.09-0.07c-0.01,0-0.01,0.05-0.03,0.06l-0.01-0.04l-0.02,0.04l-0.02-0.05l-0.01,0.01
							c0.01,0,0.02,0.02,0.02,0.03c-0.02,0.02-0.06-0.02-0.06-0.04l-0.05,0.04c0-0.02,0.01-0.02,0.01-0.03
							c-0.02,0.04-0.01-0.04-0.03,0c0,0.01,0,0.02,0,0.03c-0.02-0.02-0.05-0.02-0.07-0.01l0-0.03c-0.04,0-0.09,0.02-0.13,0.03
							c0.02,0.01,0.02,0.06,0.01,0.07l-0.01-0.04c-0.01,0.03,0.02,0.01,0,0.05c-0.02,0-0.02-0.05-0.01-0.06l-0.02,0.02
							c0-0.01,0-0.02,0-0.04c-0.01,0.03-0.04-0.04-0.05,0.01l0-0.01c-0.05,0-0.07,0.02-0.1,0.03c0,0.04-0.01,0.03-0.02,0.06
							c-0.03-0.01-0.06-0.04-0.1-0.03c-0.02,0.02,0,0.03-0.01,0.05c0-0.03-0.04-0.03-0.02-0.05c-0.04,0.01-0.05,0.01-0.1,0.04
							c0.01,0.01,0.01,0.02,0.01,0.03c-0.01,0.01-0.02-0.01-0.02-0.03l0,0c-0.05,0.05-0.14-0.09-0.18-0.01l0,0l-0.05,0.04
							c-0.02,0,0.01-0.03-0.01-0.05c-0.05,0.06-0.08,0-0.12,0.03c-0.04-0.1-0.12,0.01-0.16-0.05l0,0.02
							c-0.01,0.02-0.01-0.01-0.02-0.02c0,0.02,0.01,0.02,0.01,0.03c-0.1,0.03-0.2-0.03-0.3-0.05c-0.04-0.01-0.02,0.12-0.07,0.07
							l0.01-0.04c-0.07,0.05-0.15,0-0.22,0.04c0-0.01,0-0.02,0.01-0.02c-0.01-0.03-0.06,0-0.06,0.02c-0.01,0,0-0.02-0.01-0.04
							c-0.01-0.02-0.04,0.04-0.05,0.01c0-0.01,0.01-0.01,0.01-0.01c-0.01,0.01-0.05,0-0.04,0.03c-0.03-0.02-0.05,0.01-0.07-0.01
							c-0.02,0.04-0.05-0.02-0.05,0.04c0-0.06-0.05-0.05-0.06-0.02c0.01-0.02-0.01-0.02-0.01-0.04c-0.02,0-0.04,0.01-0.04,0.04
							c-0.03-0.07-0.08,0.05-0.09-0.04c-0.06,0.03-0.11,0.05-0.17,0.06c0.01-0.06,0.06,0,0.06-0.06c-0.05,0.02-0.08,0.07-0.13,0.05
							c-0.01-0.01,0.01-0.02,0.01-0.03c-0.05,0.02-0.09-0.01-0.14,0.01c0-0.01,0.01-0.01,0.01-0.02c-0.01,0-0.02-0.01-0.02,0.02
							l0.01-0.01c0.01,0.04-0.04,0.08-0.04,0.1c0.02-0.07-0.04-0.02-0.01-0.12c-0.01,0-0.01,0.02-0.01,0.03
							c-0.01-0.01-0.01-0.02,0-0.04c-0.03,0.01-0.02,0.04-0.05,0.04c0-0.01,0.01-0.02,0.01-0.03c-0.02,0.02-0.03,0.05-0.06,0.03
							c0-0.01,0-0.02,0.01-0.02c-0.04,0-0.08,0.06-0.12,0.03c0.02-0.05-0.01-0.02-0.01-0.07l-0.03,0.01l0.01,0.02
							c-0.02,0-0.04,0.03-0.06,0.01l0.02-0.02l-0.04,0l0.02,0.02c-0.02,0.02,0,0.06-0.03,0.04c0.01,0-0.02,0-0.03-0.03l0,0
							c-0.01,0.01-0.02,0.03-0.04,0.01c0-0.02,0.01-0.05,0.01-0.06c-0.02,0.04-0.05,0-0.07,0.05c0.01-0.01,0.01-0.03,0.01-0.04
							l-0.01,0.03c-0.01-0.01-0.01-0.02-0.01-0.04c-0.03-0.01,0,0.06-0.03,0.03c0,0,0-0.01,0.01-0.01c-0.03-0.02-0.07,0.01-0.1-0.01
							c0-0.05,0.03-0.01,0.02-0.05c-0.05,0-0.1,0.05-0.15,0.03l0.01,0.01c-0.02,0.07-0.03-0.04-0.06-0.01
							c0.01,0,0.01-0.04,0.01-0.03c-0.03-0.02-0.06,0.01-0.11,0.02l0.01-0.02c-0.02-0.02-0.05-0.02-0.06-0.03
							c-0.01,0.02-0.02,0.01-0.02,0.04c-0.04-0.11-0.12,0.04-0.16-0.06c0.01,0,0.02-0.01,0.01-0.01l-0.05,0.01
							c0,0.03,0,0.02,0.01,0.04c-0.01,0.02-0.02,0.03-0.04,0.03c0.02-0.02,0.01-0.05,0-0.07l-0.01,0.03
							c-0.01-0.06-0.02,0.06-0.04,0.02l0-0.02c-0.01,0.01-0.03,0.02-0.04,0.02c0-0.04,0.02-0.01,0.02-0.04
							c-0.02,0-0.05,0.06-0.06,0.02c0.01-0.01,0.02-0.01,0.03-0.01c-0.01-0.04-0.01-0.03-0.03-0.04l0,0l-0.03-0.02l0.01,0.01
							c-0.04,0.08-0.05,0.01-0.09,0.06c0.04-0.05,0.01-0.03,0.02-0.07c-0.01-0.01-0.02-0.03-0.01-0.04
							c-0.02,0.03-0.02-0.03-0.05,0.01c0-0.01-0.02,0-0.01-0.03c-0.02,0.01,0,0.02,0,0.04c-0.04,0.04-0.06-0.07-0.11-0.02
							c-0.04,0.02-0.06,0.06-0.1,0.07c-0.01-0.02,0.02-0.04,0.02-0.04c-0.01-0.02-0.03-0.02-0.05-0.01c0.01-0.01,0-0.02,0-0.04
							c-0.01,0-0.02,0.04-0.03,0.02c0.01-0.01,0.02-0.03,0.03-0.05c-0.01,0.01-0.04,0.03-0.06,0.03c0-0.02,0.02-0.03,0.03-0.04
							c-0.02,0.01-0.05,0.01-0.07,0.04l0.01,0.01c-0.01,0,0-0.03,0.01-0.04c0.02-0.02,0.02,0.02,0.02,0.03l-0.01,0.01
							c0,0.08,0.05,0,0.07,0.01l-0.02,0.05l0.03-0.04c0,0.01,0,0.05-0.01,0.05c0.01,0.03,0.02-0.02,0.03,0.02l0,0.01l0.02-0.01
							c-0.01,0.01-0.01,0.04-0.01,0.03c0.02,0.04,0.06-0.03,0.06,0.01l0,0c0.05-0.01,0.01-0.04,0.05-0.08l0,0.1l0.01-0.04
							c0,0,0.01,0.01,0.01,0.02c0.02-0.02,0-0.02,0.02-0.04c0.01,0.04,0.06,0,0.05,0.06c0.01-0.03-0.02-0.03,0.01-0.04
							c-0.01,0.07,0.03-0.01,0.04,0.03c-0.01,0.03-0.03,0.01-0.01,0.05c0.02-0.06,0.03,0.02,0.05,0.01
							c0.01-0.05,0.04-0.01,0.07-0.02c0,0.02,0.05,0.04,0.07,0.06l0,0.01c0.01-0.05,0.04-0.03,0.06-0.04
							c-0.01,0.03-0.01,0.04-0.02,0.05l0.02,0c0.01-0.01,0.01-0.02,0.03-0.02l-0.01,0.03c0.02,0,0.06-0.03,0.08,0
							c0.01-0.03-0.01-0.1,0.03-0.11c0,0.02-0.01,0.05-0.02,0.05c0,0,0.01-0.01,0.02,0l-0.02,0.03c0.01,0.02,0.01-0.02,0.02-0.02
							c0,0.03,0.01,0.02,0,0.04c0,0-0.01-0.01-0.01,0c0.01,0.01,0.02,0.02,0.03,0.04c0-0.01,0.01-0.03,0.02-0.04
							c0.02,0,0,0.03,0.01,0.05c0.01-0.02,0.02,0,0.03-0.03c0.01,0,0.01,0.02,0.01,0.03c0.02-0.01,0.06,0,0.05-0.04l0,0l0,0l0,0l0,0
							c0.05-0.03,0.08,0.04,0.12,0.03l0,0.01c0.03-0.01,0.06,0,0.08-0.02c0.01,0,0.01,0.03,0.01,0.04c0.02-0.01,0.02-0.02,0.05,0
							c-0.02,0.02,0,0.02-0.02,0.01c0.02,0.01,0.03,0.04,0.06,0c-0.01,0.03,0.01,0.04,0.03,0.04l-0.01-0.03c0.01,0,0.02,0,0.04,0.01
							l-0.01,0.04c0.04,0.06,0.1-0.08,0.13,0.01c0.02-0.03-0.02-0.02-0.01-0.06c0.02,0.01,0.04,0.07,0.05,0.07
							c0.03,0.03,0.04-0.06,0.07-0.04c0-0.02,0-0.06,0.02-0.07c0.02,0.01,0.02,0.07,0,0.08c-0.01,0-0.01,0-0.01-0.01
							c-0.01,0-0.02,0.01-0.01,0.03l0-0.01c0.01,0.02,0.04,0.02,0.03,0.04c0.02-0.01,0.01-0.02,0-0.03
							c0.03,0.03,0.05,0.01,0.07,0.02c0-0.01,0-0.03,0-0.03c0.04,0.02,0.02-0.03,0.05-0.03c0.01,0.02-0.01,0.06,0.02,0.04
							c0.02,0.02,0,0.04-0.01,0.05c0.03-0.03,0.05,0.02,0.06,0.03l-0.02,0.01c0.01-0.01,0.02-0.01,0.02,0l-0.01-0.03
							c0.01,0.01,0.02,0.01,0.01,0.02c0.01-0.02,0-0.05,0.02-0.08c0.01,0.02,0.04-0.01,0.04,0.03c-0.03-0.02,0,0.04-0.03,0.05
							c0.01,0,0.01,0,0.02,0l0,0.01c0.03,0.04,0.02-0.04,0.06-0.04c-0.01,0.02,0,0.04,0.01,0.04c-0.01,0,0-0.04,0.01-0.06
							c0.02,0.02,0.03-0.01,0.04-0.01l-0.01-0.01c0.01-0.02,0.02-0.02,0.03-0.02c0,0.02-0.02,0.01-0.01,0.02
							c0.02-0.04,0.04,0.05,0.06,0.02c0.01,0.02,0,0.04,0.01,0.05c0.03-0.03,0.03,0.03,0.06,0.01c-0.01-0.03-0.01-0.02,0.01-0.05
							l-0.05,0.02l0.03-0.04c-0.01,0-0.03,0.02-0.04,0.01c0.02-0.02,0.01-0.02,0.01-0.04c0.02,0.05,0.04-0.02,0.06,0.01l-0.01,0.08
							c0.03,0.04,0.06-0.04,0.11-0.01l-0.01-0.01c0.01-0.03,0.03,0,0.04-0.01c0,0.03,0.01,0.04,0.01,0.05c0-0.02,0.03,0,0.04-0.05
							l0.02,0.03c0.04,0.02,0.04-0.07,0.08-0.06c-0.01,0.03,0,0.05-0.02,0.07c0.01,0,0.02,0.01,0.02-0.01
							c0.01,0.02,0.03-0.03,0.04-0.01c0.01-0.01,0.01-0.04,0.02-0.03c0,0.01,0,0.01,0,0.01c0-0.01,0.02-0.02,0.01-0.05
							c0.03,0.08,0.1,0,0.13,0.07c0.03-0.01,0.06-0.02,0.08-0.02c0,0.01,0,0.01,0,0.01c0.03,0.02,0.02-0.07,0.06-0.05
							c0.02,0.04-0.02,0.02-0.01,0.04c0,0.08,0.04-0.01,0.07,0.04l-0.01,0c0.02,0.03,0.05-0.03,0.08-0.02c0,0,0,0.01,0,0.01
							c0.02-0.04,0.06-0.06,0.09-0.07c-0.01,0.03-0.01,0.02-0.01,0.05c0.01,0,0-0.05,0.02-0.06c0.01,0.02,0.03,0.03,0.03,0.07
							l-0.02,0c0.01,0.05,0.03,0,0.04,0.01l0,0.02c0.04-0.01,0.04-0.06,0.08-0.05l0-0.02c0.02-0.05,0.02,0.03,0.04-0.01l0.01,0.05
							c0.01-0.01,0.05-0.05,0.08-0.06c-0.01,0.04-0.04,0.06-0.06,0.08c0.01,0,0.05,0,0.06-0.03c-0.01,0.01-0.01,0.02-0.02,0.01
							c0.02-0.04,0.04-0.06,0.07-0.06c0,0.1,0.07,0.02,0.1,0.1c0.05-0.04,0.1,0.01,0.16,0c-0.02-0.08,0.02,0,0.01-0.08
							c0.01-0.01,0.02,0,0.02,0l0.04,0.05c0.01,0.02-0.01,0.02-0.01,0.04c0.03,0,0.01,0.03,0.04,0.05
							c-0.01-0.03,0.01-0.04,0.03-0.03l-0.03-0.04c0.04-0.04,0.04,0.07,0.08,0.02l-0.01,0.03c0.02-0.02,0.08,0,0.1-0.07
							c0,0.01,0.01,0.03,0,0.04c0.05,0.01,0.11-0.08,0.15-0.04l0,0.02c0.01-0.01,0.01-0.04,0.03-0.02c0,0.01,0,0.02,0,0.02
							c0-0.01,0.02-0.04,0.04-0.03l-0.01,0.02c0.05,0.02,0.07-0.06,0.11-0.08c0.01,0.06,0.05,0.07,0.07,0.08l0,0.01
							c0.06,0,0.1-0.06,0.15-0.09c0.04,0.06,0.12,0.01,0.18,0.04c-0.01-0.01,0-0.04,0-0.05c0.01,0.01,0.03-0.04,0.03,0.01l0,0
							c0.02,0.05,0.04,0.03,0.06,0.03l-0.01-0.07c0.07,0.09,0.13-0.06,0.18,0.03c0.01-0.02,0.03-0.02,0.04-0.04l0,0.04
							c0.04,0,0.06,0.01,0.1-0.01l0,0.03c0.03,0,0.02-0.11,0.04-0.11l0.02,0.05c0.04-0.01,0.09,0.03,0.13-0.02c0,0.01,0,0.02,0,0.03
							c0.02,0,0.09,0.02,0.06-0.05c0.01,0.05,0.05,0,0.06-0.03l0,0.04c0.01-0.05,0.01-0.06,0.03-0.08c0.01,0,0.01,0.03,0,0.02
							c0.03,0.01,0.01-0.04,0.04-0.02l-0.01,0.02c0.02,0,0.02-0.01,0.03-0.04c0.01-0.02,0.04,0,0.05,0.03
							c0-0.02,0.01-0.05,0.02-0.04c0,0.01,0,0.02,0,0.02c0.04,0.02,0.05-0.05,0.08-0.02c0,0.01,0.01,0.02,0.01,0.02
							c-0.03,0.01-0.05,0.01-0.05,0.01c0.01,0.03,0.03,0.03,0.02,0.08c0.01-0.03,0.04-0.09,0.06-0.08c0,0,0,0.01,0.01,0.01l0,0
							c0.01,0,0.01,0,0.01-0.01c0.01,0,0.01,0.01,0.02,0.01c0.01,0.03,0.03,0.01,0.04,0.01c-0.01-0.04,0.01-0.03-0.01-0.06
							c0,0,0,0-0.01,0.01l0,0l0,0l-0.03,0.01c0.01-0.02,0.01-0.04,0.03-0.02c0-0.02,0-0.05,0-0.06c0.03,0.05,0.06,0.07,0.07,0.1
							c0.03-0.03,0.08-0.03,0.09-0.1c0.01-0.01,0.02,0.02,0.02,0.03c0,0.01-0.01,0.01-0.01,0.02c0.02-0.02,0.06-0.02,0.05-0.07
							c0.03,0.02,0,0.05,0.03,0.03l0,0.02c0.09,0.06,0.08-0.15,0.18-0.07c-0.01,0-0.01-0.01-0.01-0.01c0.1,0.02,0.17-0.08,0.27-0.04
							c0.03,0.01,0.02-0.02,0.03-0.05l0.02,0.04l0.01-0.05c0.03-0.04,0.09,0.07,0.12,0l-0.01-0.02c0.02,0,0.05-0.03,0.05,0
							c0-0.01,0-0.03,0.01-0.02l0.01,0.02l0.03-0.05c0.04,0.01,0.02,0.08,0.07,0.07c0.01-0.01,0.03-0.07,0.02-0.08
							c-0.01,0-0.02-0.01-0.03-0.03l0.01-0.01c-0.02-0.06-0.02-0.12-0.07-0.15l-0.02,0.04l-0.02-0.03l0.02-0.01
							c-0.02-0.02-0.02,0-0.03,0.02c-0.01-0.01-0.01-0.02-0.02-0.03l-0.01,0.06c-0.01-0.02,0-0.05-0.02-0.06
							c0,0.03,0.03,0.05,0.01,0.07c-0.02-0.02-0.02-0.05-0.03-0.02c-0.01-0.01-0.01-0.02,0-0.03c-0.01,0.02-0.03,0.02-0.03,0.05
							c-0.02-0.03-0.04,0.02-0.06-0.03c0,0.01-0.01,0.05-0.02,0.06c0-0.07-0.05,0.01-0.06-0.06c0,0.06-0.05,0.04-0.07,0.08
							c0-0.01,0-0.01,0-0.01c-0.02,0-0.03-0.02-0.04-0.03c0.01,0.05-0.01,0.07-0.02,0.1c-0.03-0.04,0-0.06-0.02-0.1
							c0.01,0.04-0.02,0.05-0.01,0.08c-0.02-0.03-0.02-0.01-0.04-0.05c0.01,0.06-0.01,0.01-0.01,0.06
							c-0.03-0.02-0.02-0.06-0.04-0.03C415.04,155.38,415.05,155.35,415.05,155.35z M414.5,155.59L414.5,155.59
							c0,0,0.01-0.01,0.01-0.01S414.51,155.59,414.5,155.59z M414.46,155.61c0.01,0,0.01,0,0.02,0c0,0.01,0,0.03,0,0.03
							C414.48,155.62,414.46,155.61,414.46,155.61z M414.61,155.83c-0.01,0.01-0.01,0-0.01-0.01c0,0,0.01,0,0.01-0.01v0
							C414.61,155.82,414.61,155.83,414.61,155.83z"/>
						
							<rect x="414.61" y="155.77" transform="matrix(0.6317 -0.7752 0.7752 0.6317 31.9485 378.8004)" class="st31" width="0.01" height="0.01"/>
						<polygon class="st31" points="410.05,155.84 410.05,155.84 410.05,155.83 						"/>
						<polygon class="st31" points="413.77,155.65 413.77,155.66 413.77,155.65 						"/>
						<path class="st31" d="M409.8,155.66L409.8,155.66L409.8,155.66z"/>
						<path class="st31" d="M409.68,155.63l-0.01-0.02C409.67,155.63,409.68,155.63,409.68,155.63z"/>
						<path class="st31" d="M409.6,155.6c0,0.01,0,0.02,0,0.02l0,0L409.6,155.6z"/>
						<path class="st31" d="M411.04,155.76L411.04,155.76C411.05,155.75,411.04,155.76,411.04,155.76z"/>
						<path class="st31" d="M410.6,155.8l0.02-0.02C410.61,155.78,410.6,155.78,410.6,155.8z"/>
						<polygon class="st31" points="411.52,155.75 411.52,155.75 411.52,155.75 						"/>
						<path class="st31" d="M410.63,155.79c-0.01-0.01-0.01-0.01-0.02,0C410.62,155.79,410.63,155.79,410.63,155.79z"/>
						<polygon class="st31" points="409.21,155.5 409.21,155.49 409.21,155.5 						"/>
						<path class="st31" d="M409.21,155.5L409.21,155.5L409.21,155.5z"/>
						<path class="st31" d="M409.19,155.51l0.01-0.01C409.2,155.5,409.19,155.5,409.19,155.51z"/>
						<path class="st31" d="M409.33,155.54l0-0.01C409.33,155.53,409.33,155.53,409.33,155.54z"/>
						<path class="st31" d="M409.36,155.54c-0.01,0-0.02-0.03-0.03-0.03l0,0.01C409.34,155.51,409.35,155.56,409.36,155.54z"/>
						<path class="st31" d="M409.48,155.74l-0.03-0.02c0,0.02,0.01,0.04-0.01,0.04C409.47,155.81,409.44,155.72,409.48,155.74z"/>
						<path class="st31" d="M409.57,155.78c-0.02,0,0,0.02-0.01,0.03C409.58,155.79,409.58,155.79,409.57,155.78z"/>
						<path class="st31" d="M410.26,155.9l-0.01,0.03C410.27,155.93,410.26,155.92,410.26,155.9z"/>
						<polygon class="st31" points="410.42,155.75 410.41,155.72 410.4,155.75 						"/>
						<polygon class="st31" points="410.46,155.99 410.46,155.99 410.48,155.99 						"/>
						<path class="st31" d="M411.64,156.07l0-0.04C411.63,156.04,411.63,156.08,411.64,156.07z"/>
						<path class="st31" d="M412.15,156.04c0.01,0.02,0.02,0.03,0.03,0.01C412.17,156.05,412.16,156.03,412.15,156.04z"/>
						<polygon class="st31" points="413.68,156 413.67,156.01 413.69,156 						"/>
					</g>
				</g>
			</g>
		</g>
	</g>
</g>
</svg>
